<svg id="fi_12489906" viewBox="0 0 512 512" xmlns="http://www.w3.org/2000/svg" data-name="Layer 1"><path d="m490.999 33.172h-180.76c-2.12 0-4.153.841-5.653 2.339l-49.945 49.881c-1.502 1.5-2.347 3.537-2.347 5.661v97.674c-10.57 5.377-20.485 12.466-29.315 21.285-21.932 21.904-34.007 51.025-34.002 82 .005 30.96 12.081 60.061 34.002 81.939 22.631 22.602 52.348 33.901 82.074 33.898 21.131-.002 42.263-5.721 60.846-17.144l12.446 18.041 45.066-44.339-3.959-2.725h71.547c4.418 0 8-3.582 8-8v-312.51c0-4.418-3.582-8-8-8zm-126.751 317.959c-16.317 16.31-37.756 24.466-59.2 24.466s-42.89-8.155-59.221-24.466c-15.821-15.802-24.535-36.808-24.535-59.149s8.713-43.347 24.535-59.149c32.663-32.622 85.787-32.621 118.424.003 15.818 15.799 24.532 36.805 24.532 59.146s-8.713 43.347-24.535 59.149zm118.751-5.448h-75.027c8.587-16.364 13.152-34.664 13.155-53.671.005-30.975-12.07-60.096-34.002-82-32.088-32.04-78.441-41.357-118.831-27.963v-83.592h42.065c4.022 0 7.284-3.261 7.284-7.284v-42.002h165.356v296.511zm-28.276-85.932c0 4.418-3.582 8-8 8h-12.783c-4.418 0-8-3.582-8-8s3.582-8 8-8h12.783c4.418 0 8 3.582 8 8zm0-39.266c0 4.418-3.582 8-8 8h-28.203c-4.418 0-8-3.582-8-8s3.582-8 8-8h28.203c4.418 0 8 3.582 8 8zm0-39.266c0 4.418-3.582 8-8 8h-82.769c-4.418 0-8-3.582-8-8s3.582-8 8-8h82.769c4.418 0 8 3.582 8 8zm0-39.266c0 4.418-3.582 8-8 8h-142.153c-4.418 0-8-3.582-8-8s3.582-8 8-8h142.153c4.418 0 8 3.582 8 8zm-98.769-39.266c0-4.418 3.582-8 8-8h82.769c4.418 0 8 3.582 8 8s-3.582 8-8 8h-82.769c-4.418 0-8-3.582-8-8zm98.769 196.328c0 4.418-3.582 8-8 8h-12.783c-4.418 0-8-3.582-8-8s3.582-8 8-8h12.783c4.418 0 8 3.582 8 8zm-111.808-33.081c3.058 3.19 2.95 8.254-.24 11.311l-42.803 41.021c-1.549 1.484-3.543 2.224-5.534 2.224-2.05 0-4.098-.783-5.658-2.343l-21.373-21.374c-3.124-3.124-3.124-8.189 0-11.313 3.126-3.125 8.19-3.124 11.314 0l15.835 15.835 37.148-35.602c3.188-3.057 8.254-2.949 11.311.241zm-132.275-147.663h-90.82v-90.704h4.614c47.534 0 86.206 38.627 86.206 86.106zm-175.186 78.498c-13.943-15.303-22.455-35.628-22.455-57.901 0-47.479 38.672-86.106 86.206-86.106h4.614v69.168zm11.825 10.778 66.938-73.277h71.194v4.598c0 47.479-38.672 86.107-86.205 86.107-19.484 0-37.474-6.498-51.927-17.428zm441.89 220.733c6.515 6.507 10.093 15.53 9.816 24.754-.258 8.603-3.803 16.39-9.989 21.955-6.408 6.293-14.774 9.44-23.136 9.44-8.438 0-16.873-3.205-23.288-9.611l-53.79-53.721 46.616-46.52 53.771 53.702zm-138.984 48.153c0 4.418-3.582 8-8 8h-321.185c-4.418 0-8-3.582-8-8s3.582-8 8-8h9.972v-148.694c0-4.418 3.582-8 8-8h47.054c4.418 0 8 3.582 8 8v148.694h16.343v-212.108c0-4.418 3.582-8 8-8h47.024c4.418 0 8 3.582 8 8v212.108h16.371v-111.98c5.869 10.434 13.202 20.129 21.908 28.818 12.013 11.998 25.95 21.387 41.117 27.902v55.259h16.371v-49.479c11.531 3.224 23.581 4.895 35.895 4.895 9.171 0 18.258-.957 27.131-2.807v47.391h9.999c4.418 0 8 3.582 8 8z"></path></svg>