<svg id="fi_6020239" enable-background="new 0 0 512 512" height="512" viewBox="0 0 512 512" width="512" xmlns="http://www.w3.org/2000/svg"><path clip-rule="evenodd" d="m259.141 75.851 16.122 42.464c.485 1.276 1.613 2.096 2.977 2.162l45.367 2.211c1.421.069 2.591.964 3.031 2.317.439 1.353.019 2.765-1.09 3.656l-35.403 28.455c-1.064.855-1.495 2.182-1.137 3.499l11.916 43.83c.373 1.372-.116 2.762-1.267 3.598s-2.623.872-3.814.093l-38.003-24.877c-1.142-.748-2.537-.748-3.679 0l-38.002 24.877c-1.19.779-2.663.743-3.813-.093-1.151-.836-1.64-2.226-1.267-3.598l11.916-43.831c.358-1.317-.073-2.644-1.137-3.499l-35.403-28.455c-1.109-.891-1.53-2.303-1.09-3.656.439-1.353 1.61-2.248 3.031-2.317l45.367-2.211c1.364-.066 2.492-.886 2.976-2.162l16.122-42.464c.505-1.33 1.718-2.166 3.14-2.166 1.422.001 2.635.837 3.14 2.167zm-3.14 157.033c30.999 0 56.129 25.13 56.129 56.128 0 30.999-25.13 56.129-56.129 56.129s-56.128-25.13-56.128-56.129c-.001-30.999 25.129-56.128 56.128-56.128zm110.372 221.323c-5.96-55.692-53.099-99.067-110.372-99.067-57.274 0-104.413 43.376-110.373 99.068v22.438c0 16.34 13.327 29.667 29.667 29.667h161.411c16.34 0 29.667-13.327 29.667-29.667zm39.22-177.036c24.502 0 44.366 19.863 44.366 44.366 0 24.502-19.863 44.365-44.366 44.365-24.502 0-44.365-19.863-44.365-44.365-.001-24.503 19.862-44.366 44.365-44.366zm-23.22 177.037v-.854l-.091-.849c-2.502-23.376-11.282-44.709-24.546-62.409 13.764-8.974 30.2-14.193 47.857-14.193 40.886 0 75.239 27.966 84.979 65.813.797 3.095.176 6.094-1.782 8.619-1.958 2.526-4.708 3.874-7.904 3.874zm-351.259 0c-3.195 0-5.946-1.348-7.903-3.874-1.958-2.526-2.578-5.524-1.782-8.619 9.741-37.846 44.093-65.813 84.98-65.813 17.657 0 34.093 5.219 47.856 14.194-13.264 17.7-22.044 39.033-24.546 62.41l-.091.849v.853zm75.294-177.037c24.502 0 44.366 19.863 44.366 44.366 0 24.502-19.863 44.365-44.366 44.365-24.502 0-44.365-19.863-44.365-44.365 0-24.503 19.863-44.366 44.365-44.366zm64.868-215.601 28.377 25.551c3.279 2.951 8.33 2.685 11.281-.594s2.685-8.33-.594-11.281l-28.377-25.551c-3.279-2.951-8.33-2.685-11.281.594s-2.685 8.33.594 11.281zm158.76-11.875-28.542 25.7c-3.279 2.951-3.545 8.002-.594 11.281s8.002 3.545 11.281.594l28.542-25.7c3.279-2.951 3.545-8.002.594-11.281s-8.002-3.545-11.281-.594zm-66.036-6.649c0 4.418-3.582 8-8 8s-8-3.582-8-8v-29.359c0-4.418 3.582-8 8-8s8 3.582 8 8z" fill-rule="evenodd"></path></svg>