<?xml version="1.0" encoding="UTF-8" standalone="no" ?>
<!DOCTYPE svg PUBLIC "-//W3C//DTD SVG 1.1//EN" "http://www.w3.org/Graphics/SVG/1.1/DTD/svg11.dtd">
<svg xmlns="http://www.w3.org/2000/svg" xmlns:xlink="http://www.w3.org/1999/xlink" version="1.1" width="700" height="180" viewBox="0 0 700 180" xml:space="preserve">
<desc>Created with Fabric.js 4.6.0</desc>
<defs>
</defs>
<g transform="matrix(1.33 0 0 -1.33 267.95 34.08)" id="YxYjPDgInsUYyZWydgfF5"  >
<path style="stroke: none; stroke-width: 1; stroke-dasharray: none; stroke-linecap: butt; stroke-dashoffset: 0; stroke-linejoin: miter; stroke-miterlimit: 4; fill: rgb(0,83,160); fill-rule: nonzero; opacity: 1;" vector-effect="non-scaling-stroke"  transform=" translate(7.84, -16.66)" d="M 0 0 L 0 13.984 L -15.731 13.984 L -15.731 0 L -22.823 0 L -22.823 33.312 L -15.731000000000002 33.312 L -15.731000000000002 20.227 L 0 20.227 L 0 33.312 L 7.142 33.312 L 7.142 0 Z" stroke-linecap="round" />
</g>
<g transform="matrix(1.33 0 0 -1.33 317.72 34.11)" id="7JnKba1ldgBuqzPqD-mF9" clip-path="url(#CLIPPATH_169)"  >
<clipPath id="CLIPPATH_169" >
	<path transform="matrix(1 0 0 1 21.43 -42.78) translate(-396, -306)" id="path20" d="M 0 612 L 792 612 L 792 0 L 0 0 Z" stroke-linecap="round" />
</clipPath>
<path style="stroke: none; stroke-width: 1; stroke-dasharray: none; stroke-linecap: butt; stroke-dashoffset: 0; stroke-linejoin: miter; stroke-miterlimit: 4; fill: rgb(0,83,160); fill-rule: nonzero; opacity: 1;" vector-effect="non-scaling-stroke"  transform=" translate(-0.03, 10.94)" d="M 0 0 C -6.143 0 -10.088 -4.694 -10.088 -10.937 C -10.088 -17.13 -6.142999999999999 -21.875 0 -21.875 C 6.143 -21.875 10.139 -17.13 10.139 -10.937 C 10.139 -4.694 6.143 0 0 0 M 0 6.293 C 10.088 6.293 17.43 -0.899 17.43 -10.937000000000001 C 17.43 -20.976 10.088000000000001 -28.167 0 -28.167 C -10.038 -28.167 -17.379 -20.976000000000003 -17.379 -10.937000000000001 C -17.379 -0.8990000000000009 -10.038 6.292999999999999 0 6.292999999999999" stroke-linecap="round" />
</g>
<g transform="matrix(1.33 0 0 -1.33 362.84 34.14)" id="H3WsW57HabPQuWGbpmnfZ" clip-path="url(#CLIPPATH_170)"  >
<clipPath id="CLIPPATH_170" >
	<path transform="matrix(1 0 0 1 -12.4 -42.75) translate(-396, -306)" id="path20" d="M 0 612 L 792 612 L 792 0 L 0 0 Z" stroke-linecap="round" />
</clipPath>
<path style="stroke: none; stroke-width: 1; stroke-dasharray: none; stroke-linecap: butt; stroke-dashoffset: 0; stroke-linejoin: miter; stroke-miterlimit: 4; fill: rgb(0,83,160); fill-rule: nonzero; opacity: 1;" vector-effect="non-scaling-stroke"  transform=" translate(-9.84, -6.52)" d="M 0 0 C 2.347 -2.447 5.993 -4.495 10.588 -4.495 C 14.482999999999999 -4.495 16.381 -2.6470000000000002 16.381 -0.7490000000000001 C 16.381 1.7479999999999998 13.484 2.597 9.639 3.496 C 4.194999999999999 4.745 -2.7970000000000006 6.243 -2.7970000000000006 13.684000000000001 C -2.7970000000000006 19.228 1.9979999999999993 23.722 9.838 23.722 C 15.131999999999998 23.722 19.527 22.124000000000002 22.823 19.078000000000003 L 18.878 13.884000000000004 C 16.181 16.381000000000004 12.585 17.530000000000005 9.339 17.530000000000005 C 6.143000000000001 17.530000000000005 4.445 16.131000000000004 4.445 14.133000000000004 C 4.445 11.886000000000005 7.241 11.187000000000005 11.087 10.288000000000004 C 16.58 9.04 23.572 7.391 23.572 0 C 23.572 -6.093 19.227999999999998 -10.688 10.238 -10.688 C 3.8449999999999998 -10.688 -0.75 -8.540000000000001 -3.896000000000001 -5.394000000000001 z" stroke-linecap="round" />
</g>
<g transform="matrix(1.33 0 0 -1.33 405.39 34.08)" id="-EVFARenRHJMDvFUQbmt0" clip-path="url(#CLIPPATH_171)"  >
<clipPath id="CLIPPATH_171" >
	<path transform="matrix(1 0 0 1 -44.32 -42.8) translate(-396, -306)" id="path20" d="M 0 612 L 792 612 L 792 0 L 0 0 Z" stroke-linecap="round" />
</clipPath>
<path style="stroke: none; stroke-width: 1; stroke-dasharray: none; stroke-linecap: butt; stroke-dashoffset: 0; stroke-linejoin: miter; stroke-miterlimit: 4; fill: rgb(0,83,160); fill-rule: nonzero; opacity: 1;" vector-effect="non-scaling-stroke"  transform=" translate(1.25, 10.56)" d="M 0 0 L -7.541 0 L -7.541 -9.189 L 0 -9.189 C 2.797 -9.189 4.895 -7.391 4.895 -4.595 C 4.895 -1.848 2.797 0 0 0 M -14.633 -27.218 L -14.633 6.093 L 0.949 6.093 C 8.191 6.093 12.137 1.1989999999999998 12.137 -4.645 C 12.137 -10.437999999999999 8.141 -15.282 0.9489999999999998 -15.282 L -7.541 -15.282 L -7.541 -27.218 z" stroke-linecap="round" />
</g>
<g transform="matrix(1.33 0 0 -1.33 433.82 34.08)" id="R8VMDkYhpXquHM1ZTVWQu" clip-path="url(#CLIPPATH_172)"  >
<clipPath id="CLIPPATH_172" >
	<path transform="matrix(1 0 0 1 -65.64 -42.8) translate(-396, -306)" id="path20" d="M 0 612 L 792 612 L 792 0 L 0 0 Z" stroke-linecap="round" />
</clipPath>
<path style="stroke: none; stroke-width: 1; stroke-dasharray: none; stroke-linecap: butt; stroke-dashoffset: 0; stroke-linejoin: miter; stroke-miterlimit: 4; fill: rgb(0,83,160); fill-rule: nonzero; opacity: 1;" vector-effect="non-scaling-stroke"  transform=" translate(-461.64, -348.8)" d="M 458.097 365.46 L 465.18899999999996 365.46 L 465.18899999999996 332.14799999999997 L 458.097 332.14799999999997 z" stroke-linecap="round" />
</g>
<g transform="matrix(1.33 0 0 -1.33 462.32 34.08)" id="FuiTWsujMo3k-b36EVVsp" clip-path="url(#CLIPPATH_173)"  >
<clipPath id="CLIPPATH_173" >
	<path transform="matrix(1 0 0 1 -87.02 -42.8) translate(-396, -306)" id="path20" d="M 0 612 L 792 612 L 792 0 L 0 0 Z" stroke-linecap="round" />
</clipPath>
<path style="stroke: none; stroke-width: 1; stroke-dasharray: none; stroke-linecap: butt; stroke-dashoffset: 0; stroke-linejoin: miter; stroke-miterlimit: 4; fill: rgb(0,83,160); fill-rule: nonzero; opacity: 1;" vector-effect="non-scaling-stroke"  transform=" translate(-3.55, -16.66)" d="M 0 0 L 0 27.068 L -9.738 27.068 L -9.738 33.312 L 16.83 33.312 L 16.83 27.068 L 7.142 27.068 L 7.142 0 Z" stroke-linecap="round" />
</g>
<g transform="matrix(1.33 0 0 -1.33 504.44 34.08)" id="TaY2gi5Uk6XRBR99wiVcv" clip-path="url(#CLIPPATH_174)"  >
<clipPath id="CLIPPATH_174" >
	<path transform="matrix(1 0 0 1 -118.61 -42.8) translate(-396, -306)" id="path20" d="M 0 612 L 792 612 L 792 0 L 0 0 Z" stroke-linecap="round" />
</clipPath>
<path style="stroke: none; stroke-width: 1; stroke-dasharray: none; stroke-linecap: butt; stroke-dashoffset: 0; stroke-linejoin: miter; stroke-miterlimit: 4; fill: rgb(0,83,160); fill-rule: nonzero; opacity: 1;" vector-effect="non-scaling-stroke"  transform=" translate(0.02, 10.51)" d="M 0 0 L -5.544 -15.282 L 5.494 -15.282 Z M 9.539 -27.168 L 7.441 -21.424999999999997 L -7.441 -21.424999999999997 L -9.539 -27.168 L -17.33 -27.168 L -4.444 6.143 L 4.445 6.143 L 17.28 -27.168 Z" stroke-linecap="round" />
</g>
<g transform="matrix(1.33 0 0 -1.33 545.76 34.08)" id="DaGxrI_dI7p-9S2pe2jVB" clip-path="url(#CLIPPATH_175)"  >
<clipPath id="CLIPPATH_175" >
	<path transform="matrix(1 0 0 1 -149.6 -42.8) translate(-396, -306)" id="path20" d="M 0 612 L 792 612 L 792 0 L 0 0 Z" stroke-linecap="round" />
</clipPath>
<path style="stroke: none; stroke-width: 1; stroke-dasharray: none; stroke-linecap: butt; stroke-dashoffset: 0; stroke-linejoin: miter; stroke-miterlimit: 4; fill: rgb(0,83,160); fill-rule: nonzero; opacity: 1;" vector-effect="non-scaling-stroke"  transform=" translate(-10.59, -16.66)" d="M 0 0 L 0 33.312 L 7.092 33.312 L 7.092 6.243 L 21.176 6.243 L 21.176 0 Z" stroke-linecap="round" />
</g>
<g transform="matrix(1.33 0 0 -1.33 266.32 101.88)" id="djuxUtSWvcmeJe4oBI152" clip-path="url(#CLIPPATH_176)"  >
<clipPath id="CLIPPATH_176" >
	<path transform="matrix(1 0 0 1 59.99 8.05) translate(-396, -306)" id="path20" d="M 0 612 L 792 612 L 792 0 L 0 0 Z" stroke-linecap="round" />
</clipPath>
<path style="stroke: none; stroke-width: 1; stroke-dasharray: none; stroke-linecap: butt; stroke-dashoffset: 0; stroke-linejoin: miter; stroke-miterlimit: 4; fill: rgb(0,83,160); fill-rule: nonzero; opacity: 1;" vector-effect="non-scaling-stroke"  transform=" translate(0.02, 10.51)" d="M 0 0 L -5.543 -15.283 L 5.494 -15.283 Z M 9.539 -27.169 L 7.441 -21.426000000000002 L -7.441 -21.426000000000002 L -9.539 -27.169000000000004 L -17.33 -27.169000000000004 L -4.445 6.143 L 4.445 6.143 L 17.28 -27.169 Z" stroke-linecap="round" />
</g>
<g transform="matrix(1.33 0 0 -1.33 308.77 101.95)" id="aRriPV8AEihN3OETabC_Z" clip-path="url(#CLIPPATH_177)"  >
<clipPath id="CLIPPATH_177" >
	<path transform="matrix(1 0 0 1 28.15 8.1) translate(-396, -306)" id="path20" d="M 0 612 L 792 612 L 792 0 L 0 0 Z" stroke-linecap="round" />
</clipPath>
<path style="stroke: none; stroke-width: 1; stroke-dasharray: none; stroke-linecap: butt; stroke-dashoffset: 0; stroke-linejoin: miter; stroke-miterlimit: 4; fill: rgb(0,83,160); fill-rule: nonzero; opacity: 1;" vector-effect="non-scaling-stroke"  transform=" translate(-9.84, -6.52)" d="M 0 0 C 2.347 -2.446 5.993 -4.494 10.587 -4.494 C 14.483 -4.494 16.381 -2.646 16.381 -0.7489999999999997 C 16.381 1.7480000000000002 13.484 2.5980000000000003 9.639 3.4960000000000004 C 4.194999999999999 4.745000000000001 -2.7970000000000006 6.243 -2.7970000000000006 13.685 C -2.7970000000000006 19.229 1.9979999999999993 23.723 9.838 23.723 C 15.131999999999998 23.723 19.527 22.125 22.823 19.078 L 18.878 13.884 C 16.181 16.382 12.585 17.53 9.339 17.53 C 6.143000000000001 17.53 4.445 16.132 4.445 14.134 C 4.445 11.887 7.241 11.188 11.087 10.288 C 16.581 9.04 23.572 7.392 23.572 0 C 23.572 -6.093 19.227999999999998 -10.688 10.238 -10.688 C 3.8449999999999998 -10.688 -0.75 -8.540000000000001 -3.896000000000001 -5.394000000000001 z" stroke-linecap="round" />
</g>
<g transform="matrix(1.33 0 0 -1.33 350.05 101.95)" id="5iPXiBcNmpSWSxd8eCyuN" clip-path="url(#CLIPPATH_178)"  >
<clipPath id="CLIPPATH_178" >
	<path transform="matrix(1 0 0 1 -2.81 8.1) translate(-396, -306)" id="path20" d="M 0 612 L 792 612 L 792 0 L 0 0 Z" stroke-linecap="round" />
</clipPath>
<path style="stroke: none; stroke-width: 1; stroke-dasharray: none; stroke-linecap: butt; stroke-dashoffset: 0; stroke-linejoin: miter; stroke-miterlimit: 4; fill: rgb(0,83,160); fill-rule: nonzero; opacity: 1;" vector-effect="non-scaling-stroke"  transform=" translate(-9.84, -6.52)" d="M 0 0 C 2.347 -2.446 5.993 -4.494 10.587 -4.494 C 14.483 -4.494 16.381 -2.646 16.381 -0.7489999999999997 C 16.381 1.7480000000000002 13.484 2.5980000000000003 9.639 3.4960000000000004 C 4.194999999999999 4.745000000000001 -2.7970000000000006 6.243 -2.7970000000000006 13.685 C -2.7970000000000006 19.229 1.9979999999999993 23.723 9.838 23.723 C 15.131999999999998 23.723 19.527 22.125 22.823999999999998 19.078 L 18.877999999999997 13.884 C 16.180999999999997 16.382 12.584999999999997 17.53 9.338999999999997 17.53 C 6.142999999999997 17.53 4.444999999999997 16.132 4.444999999999997 14.134 C 4.444999999999997 11.887 7.240999999999996 11.188 11.086999999999996 10.288 C 16.581 9.04 23.573 7.392 23.573 0 C 23.573 -6.093 19.227 -10.688 10.238 -10.688 C 3.8449999999999998 -10.688 -0.75 -8.540000000000001 -3.896000000000001 -5.394000000000001 z" stroke-linecap="round" />
</g>
<g transform="matrix(1.33 0 0 -1.33 395.83 101.91)" id="Khb9VG9bKrfF4tIZ_GJvT" clip-path="url(#CLIPPATH_179)"  >
<clipPath id="CLIPPATH_179" >
	<path transform="matrix(1 0 0 1 -37.15 8.07) translate(-396, -306)" id="path20" d="M 0 612 L 792 612 L 792 0 L 0 0 Z" stroke-linecap="round" />
</clipPath>
<path style="stroke: none; stroke-width: 1; stroke-dasharray: none; stroke-linecap: butt; stroke-dashoffset: 0; stroke-linejoin: miter; stroke-miterlimit: 4; fill: rgb(0,83,160); fill-rule: nonzero; opacity: 1;" vector-effect="non-scaling-stroke"  transform=" translate(-0.03, 10.94)" d="M 0 0 C -6.144 0 -10.089 -4.695 -10.089 -10.938 C -10.089 -17.131 -6.144 -21.875 0 -21.875 C 6.143 -21.875 10.138 -17.131 10.138 -10.938 C 10.138 -4.695 6.143 0 0 0 M 0 6.292 C 10.088 6.292 17.43 -0.899 17.43 -10.938 C 17.43 -20.976 10.088000000000001 -28.168 0 -28.168 C -10.039 -28.168 -17.38 -20.976 -17.38 -10.937999999999999 C -17.38 -0.8989999999999991 -10.038999999999998 6.292000000000002 0 6.292000000000002" stroke-linecap="round" />
</g>
<g transform="matrix(1.33 0 0 -1.33 444.68 101.91)" id="cjiUAorNj70evvQwWdPhY" clip-path="url(#CLIPPATH_180)"  >
<clipPath id="CLIPPATH_180" >
	<path transform="matrix(1 0 0 1 -73.78 8.07) translate(-396, -306)" id="path20" d="M 0 612 L 792 612 L 792 0 L 0 0 Z" stroke-linecap="round" />
</clipPath>
<path style="stroke: none; stroke-width: 1; stroke-dasharray: none; stroke-linecap: butt; stroke-dashoffset: 0; stroke-linejoin: miter; stroke-miterlimit: 4; fill: rgb(0,83,160); fill-rule: nonzero; opacity: 1;" vector-effect="non-scaling-stroke"  transform=" translate(-15.83, 0)" d="M 0 0 C 0 10.238 7.741 17.229 17.479 17.229 C 25.07 17.229 29.314999999999998 13.233999999999998 31.662999999999997 9.088999999999999 L 25.57 6.093 C 24.172 8.79 21.175 10.938 17.479 10.938 C 11.687 10.938 7.291 6.293 7.291 0 C 7.291 -6.293 11.687000000000001 -10.938 17.479 -10.938 C 21.175 -10.938 24.171999999999997 -8.84 25.57 -6.093000000000001 L 31.663 -9.04 C 29.266 -13.185 25.07 -17.23 17.479 -17.23 C 7.741 -17.23 0 -10.238 0 0" stroke-linecap="round" />
</g>
<g transform="matrix(1.33 0 0 -1.33 477.51 101.88)" id="AhOORb9q6E4yS4OVMeuXf" clip-path="url(#CLIPPATH_181)"  >
<clipPath id="CLIPPATH_181" >
	<path transform="matrix(1 0 0 1 -98.41 8.05) translate(-396, -306)" id="path20" d="M 0 612 L 792 612 L 792 0 L 0 0 Z" stroke-linecap="round" />
</clipPath>
<path style="stroke: none; stroke-width: 1; stroke-dasharray: none; stroke-linecap: butt; stroke-dashoffset: 0; stroke-linejoin: miter; stroke-miterlimit: 4; fill: rgb(0,83,160); fill-rule: nonzero; opacity: 1;" vector-effect="non-scaling-stroke"  transform=" translate(-494.4, -297.95)" d="M 490.859 314.608 L 497.95099999999996 314.608 L 497.95099999999996 281.296 L 490.859 281.296 z" stroke-linecap="round" />
</g>
<g transform="matrix(1.33 0 0 -1.33 512.03 101.88)" id="5CRutFXSIk3LICapd7FC2" clip-path="url(#CLIPPATH_182)"  >
<clipPath id="CLIPPATH_182" >
	<path transform="matrix(1 0 0 1 -124.3 8.05) translate(-396, -306)" id="path20" d="M 0 612 L 792 612 L 792 0 L 0 0 Z" stroke-linecap="round" />
</clipPath>
<path style="stroke: none; stroke-width: 1; stroke-dasharray: none; stroke-linecap: butt; stroke-dashoffset: 0; stroke-linejoin: miter; stroke-miterlimit: 4; fill: rgb(0,83,160); fill-rule: nonzero; opacity: 1;" vector-effect="non-scaling-stroke"  transform=" translate(0.02, 10.51)" d="M 0 0 L -5.544 -15.283 L 5.494 -15.283 Z M 9.539 -27.169 L 7.441 -21.426000000000002 L -7.441 -21.426000000000002 L -9.539 -27.169000000000004 L -17.33 -27.169000000000004 L -4.444 6.143 L 4.445 6.143 L 17.28 -27.169 Z" stroke-linecap="round" />
</g>
<g transform="matrix(1.33 0 0 -1.33 554.22 101.88)" id="DOe-WB6OI7orRPSqfCsM-" clip-path="url(#CLIPPATH_183)"  >
<clipPath id="CLIPPATH_183" >
	<path transform="matrix(1 0 0 1 -155.94 8.05) translate(-396, -306)" id="path20" d="M 0 612 L 792 612 L 792 0 L 0 0 Z" stroke-linecap="round" />
</clipPath>
<path style="stroke: none; stroke-width: 1; stroke-dasharray: none; stroke-linecap: butt; stroke-dashoffset: 0; stroke-linejoin: miter; stroke-miterlimit: 4; fill: rgb(0,83,160); fill-rule: nonzero; opacity: 1;" vector-effect="non-scaling-stroke"  transform=" translate(-3.55, -16.66)" d="M 0 0 L 0 27.068 L -9.738 27.068 L -9.738 33.312 L 16.83 33.312 L 16.83 27.068 L 7.142 27.068 L 7.142 0 Z" stroke-linecap="round" />
</g>
<g transform="matrix(1.33 0 0 -1.33 582.72 101.88)" id="f9IeC1oc_5A0hPUu_ImVP" clip-path="url(#CLIPPATH_184)"  >
<clipPath id="CLIPPATH_184" >
	<path transform="matrix(1 0 0 1 -177.31 8.05) translate(-396, -306)" id="path20" d="M 0 612 L 792 612 L 792 0 L 0 0 Z" stroke-linecap="round" />
</clipPath>
<path style="stroke: none; stroke-width: 1; stroke-dasharray: none; stroke-linecap: butt; stroke-dashoffset: 0; stroke-linejoin: miter; stroke-miterlimit: 4; fill: rgb(0,83,160); fill-rule: nonzero; opacity: 1;" vector-effect="non-scaling-stroke"  transform=" translate(-573.31, -297.95)" d="M 569.767 314.608 L 576.859 314.608 L 576.859 281.296 L 569.767 281.296 z" stroke-linecap="round" />
</g>
<g transform="matrix(1.33 0 0 -1.33 617.31 101.91)" id="WCtE-7DppfKXLRA_WpvDn" clip-path="url(#CLIPPATH_185)"  >
<clipPath id="CLIPPATH_185" >
	<path transform="matrix(1 0 0 1 -203.26 8.07) translate(-396, -306)" id="path20" d="M 0 612 L 792 612 L 792 0 L 0 0 Z" stroke-linecap="round" />
</clipPath>
<path style="stroke: none; stroke-width: 1; stroke-dasharray: none; stroke-linecap: butt; stroke-dashoffset: 0; stroke-linejoin: miter; stroke-miterlimit: 4; fill: rgb(0,83,160); fill-rule: nonzero; opacity: 1;" vector-effect="non-scaling-stroke"  transform=" translate(-0.03, 10.94)" d="M 0 0 C -6.144 0 -10.089 -4.695 -10.089 -10.938 C -10.089 -17.131 -6.144 -21.875 0 -21.875 C 6.143 -21.875 10.138 -17.131 10.138 -10.938 C 10.138 -4.695 6.143 0 0 0 M 0 6.292 C 10.088 6.292 17.43 -0.899 17.43 -10.938 C 17.43 -20.976 10.088000000000001 -28.168 0 -28.168 C -10.039 -28.168 -17.38 -20.976 -17.38 -10.937999999999999 C -17.38 -0.8989999999999991 -10.038999999999998 6.292000000000002 0 6.292000000000002" stroke-linecap="round" />
</g>
<g transform="matrix(1.33 0 0 -1.33 667.05 101.88)" id="cSphYeO_PPKrzOMMlcA6j" clip-path="url(#CLIPPATH_186)"  >
<clipPath id="CLIPPATH_186" >
	<path transform="matrix(1 0 0 1 -240.57 8.05) translate(-396, -306)" id="path20" d="M 0 612 L 792 612 L 792 0 L 0 0 Z" stroke-linecap="round" />
</clipPath>
<path style="stroke: none; stroke-width: 1; stroke-dasharray: none; stroke-linecap: butt; stroke-dashoffset: 0; stroke-linejoin: miter; stroke-miterlimit: 4; fill: rgb(0,83,160); fill-rule: nonzero; opacity: 1;" vector-effect="non-scaling-stroke"  transform=" translate(8.07, -16.66)" d="M 0 0 L -15.882 22.374 L -15.882 0 L -22.974 0 L -22.974 33.312 L -15.682 33.312 L -0.25 11.736 L -0.25 33.312 L 6.842 33.312 L 6.842 0 Z" stroke-linecap="round" />
</g>
<g transform="matrix(1.33 0 0 -1.33 76.19 35.42)" id="UhQ-uUGYaIUQyAk9X_roi" clip-path="url(#CLIPPATH_187)"  >
<clipPath id="CLIPPATH_187" >
	<path transform="matrix(1 0 0 1 202.58 -41.79) translate(-396, -306)" id="path20" d="M 0 612 L 792 612 L 792 0 L 0 0 Z" stroke-linecap="round" />
</clipPath>
<path style="stroke: none; stroke-width: 1; stroke-dasharray: none; stroke-linecap: butt; stroke-dashoffset: 0; stroke-linejoin: miter; stroke-miterlimit: 4; fill: rgb(0,83,160); fill-rule: nonzero; opacity: 1;" vector-effect="non-scaling-stroke"  transform=" translate(-52.89, -19.92)" d="M 0 0 C 32.072 17.513 67.707 31.37 105.802 39.848 L -0.018 39.848 Z" stroke-linecap="round" />
</g>
<g transform="matrix(1.33 0 0 -1.33 129.3 91.02)" id="_FsC2hdeoa8g6Zq6OwOYD" clip-path="url(#CLIPPATH_188)"  >
<clipPath id="CLIPPATH_188" >
	<path transform="matrix(1 0 0 1 162.75 -0.1) translate(-396, -306)" id="path20" d="M 0 612 L 792 612 L 792 0 L 0 0 Z" stroke-linecap="round" />
</clipPath>
<path style="stroke: none; stroke-width: 1; stroke-dasharray: none; stroke-linecap: butt; stroke-dashoffset: 0; stroke-linejoin: miter; stroke-miterlimit: 4; fill: rgb(0,83,160); fill-rule: nonzero; opacity: 1;" vector-effect="non-scaling-stroke"  transform=" translate(-8.12, -24.5)" d="M 0 0 C 0 37.961 26.646 70.762 65.308 86.38 L 55.289 86.227 C -4.464 66.393 -47.202 18.728 -49.063 -37.375 L 9.148 -37.375 C 3.268 -25.885 0 -13.261 0 0" stroke-linecap="round" />
</g>
<g transform="matrix(1.33 0 0 -1.33 195.38 86.82)" id="5nKn1sHgjdRMhoO5aHCSP" clip-path="url(#CLIPPATH_189)"  >
<clipPath id="CLIPPATH_189" >
	<path transform="matrix(1 0 0 1 113.19 -3.25) translate(-396, -306)" id="path20" d="M 0 612 L 792 612 L 792 0 L 0 0 Z" stroke-linecap="round" />
</clipPath>
<path style="stroke: none; stroke-width: 1; stroke-dasharray: none; stroke-linecap: butt; stroke-dashoffset: 0; stroke-linejoin: miter; stroke-miterlimit: 4; fill: rgb(0,83,160); fill-rule: nonzero; opacity: 1;" vector-effect="non-scaling-stroke"  transform=" translate(-22.79, 1.18)" d="M 0 0 C 0 -26.343 18.365 -49.09 45.052 -60.133 L 45.052 -16.079 C 32.451 -7.438 24.421 5.596 24.421 20.183 C 24.421 34.769999999999996 32.986 49.129000000000005 45.587 57.767 L 39.669 57.684 C 15.936 45.932 0 24.531 0 0" stroke-linecap="round" />
</g>
<g transform="matrix(1.33 0 0 -1.33 92.06 77.52)" id="oxFmpKSKQdN5QJ6GbeOVC" clip-path="url(#CLIPPATH_190)"  >
<clipPath id="CLIPPATH_190" >
	<path transform="matrix(1 0 0 1 190.68 -10.22) translate(-396, -306)" id="path20" d="M 0 612 L 792 612 L 792 0 L 0 0 Z" stroke-linecap="round" />
</clipPath>
<path style="stroke: none; stroke-width: 1; stroke-dasharray: none; stroke-linecap: butt; stroke-dashoffset: 0; stroke-linejoin: miter; stroke-miterlimit: 4; fill: rgb(0,83,160); fill-rule: nonzero; opacity: 1;" vector-effect="non-scaling-stroke"  transform=" translate(-64.79, -8.53)" d="M 0 0 L 0 -42.971 C 22.95 5.059 70.382 42.903 129.583 60.025 L 118.896 59.987 C 74.441 48.039 32.682 30.741 0 0" stroke-linecap="round" />
</g>
<g transform="matrix(1.33 0 0 -1.33 256.51 162.31)" id="ewJCthXBgDwVoptuDUEi3" clip-path="url(#CLIPPATH_191)"  >
<clipPath id="CLIPPATH_191" >
	<path transform="matrix(1 0 0 1 67.34 53.37) translate(-396, -306)" id="path20" d="M 0 612 L 792 612 L 792 0 L 0 0 Z" stroke-linecap="round" />
</clipPath>
<path style="stroke: none; stroke-width: 1; stroke-dasharray: none; stroke-linecap: butt; stroke-dashoffset: 0; stroke-linejoin: miter; stroke-miterlimit: 4; fill: rgb(84,84,86); fill-rule: nonzero; opacity: 1;" vector-effect="non-scaling-stroke"  transform=" translate(5.22, 0.02)" d="M 0 0 C 0 3.167 -1.845 6.021 -5.221 6.021 C -8.563 6.021 -10.442 3.167 -10.442 0 C -10.442 -3.202 -8.563 -6.056 -5.221 -6.056 C -1.845 -6.056 0 -3.202 0 0 M -13.713 0 C -13.713 4.838 -10.442 8.806 -5.220999999999998 8.806 C 0.03500000000000192 8.806 3.2710000000000026 4.837999999999999 3.2710000000000026 0 C 3.2710000000000026 -4.873 0.03500000000000236 -8.841 -5.220999999999998 -8.841 C -10.441999999999998 -8.841 -13.713 -4.872999999999999 -13.713 0" stroke-linecap="round" />
</g>
<g transform="matrix(1.33 0 0 -1.33 277.53 157.81)" id="UhL4sIEeDo0_aN4L79JUL" clip-path="url(#CLIPPATH_192)"  >
<clipPath id="CLIPPATH_192" >
	<path transform="matrix(1 0 0 1 51.58 50) translate(-396, -306)" id="path20" d="M 0 612 L 792 612 L 792 0 L 0 0 Z" stroke-linecap="round" />
</clipPath>
<path style="stroke: none; stroke-width: 1; stroke-dasharray: none; stroke-linecap: butt; stroke-dashoffset: 0; stroke-linejoin: miter; stroke-miterlimit: 4; fill: rgb(84,84,86); fill-rule: nonzero; opacity: 1;" vector-effect="non-scaling-stroke"  transform=" translate(0.59, 2.28)" d="M 0 0 L 0 -14.062 L -3.133 -14.062 L -3.133 0 L -5.917 0 L -5.917 2.749 L -3.133 2.749 L -3.133 3.8630000000000004 C -3.133 7.4830000000000005 -1.009 9.502 1.984 9.502 C 3.0629999999999997 9.502 4.002 9.293000000000001 4.7330000000000005 8.875 L 4.002 6.543 C 3.585 6.787 3.063 6.926 2.506 6.926 C 0.939 6.926 0 5.882 0 3.863 L 0 2.749 L 3.411 2.749 L 3.411 0 Z" stroke-linecap="round" />
</g>
<g transform="matrix(1.33 0 0 -1.33 308.97 158.09)" id="2l3Gn6tZvpMs-N14Jjwpf" clip-path="url(#CLIPPATH_193)"  >
<clipPath id="CLIPPATH_193" >
	<path transform="matrix(1 0 0 1 28 50.21) translate(-396, -306)" id="path20" d="M 0 612 L 792 612 L 792 0 L 0 0 Z" stroke-linecap="round" />
</clipPath>
<path style="stroke: none; stroke-width: 1; stroke-dasharray: none; stroke-linecap: butt; stroke-dashoffset: 0; stroke-linejoin: miter; stroke-miterlimit: 4; fill: rgb(84,84,86); fill-rule: nonzero; opacity: 1;" vector-effect="non-scaling-stroke"  transform=" translate(-6.98, -5.62)" d="M 0 0 C 1.566 -1.74 4.072 -3.272 7.309 -3.272 C 11.068 -3.272 12.391 -1.3569999999999998 12.391 0.3120000000000003 C 12.391 2.749 9.746 3.4450000000000003 6.787 4.211 C 3.0629999999999997 5.186 -1.2529999999999992 6.265000000000001 -1.2529999999999992 10.998000000000001 C -1.2529999999999992 14.826 2.1230000000000007 17.611 6.961000000000001 17.611 C 10.546000000000001 17.611 13.365000000000002 16.463 15.419 14.374 L 13.4 11.799 C 11.625 13.677999999999999 9.189 14.514 6.683000000000001 14.514 C 4.107000000000001 14.514 2.3320000000000007 13.19 2.3320000000000007 11.241 C 2.3320000000000007 9.152999999999999 4.838000000000001 8.491999999999999 7.727 7.760999999999999 C 11.521 6.751999999999999 15.941 5.568 15.941 0.6259999999999994 C 15.941 -2.9940000000000007 13.435 -6.370000000000001 7.17 -6.370000000000001 C 3.0279999999999996 -6.370000000000001 0 -4.873000000000001 -1.984 -2.681000000000001 z" stroke-linecap="round" />
</g>
<g transform="matrix(1.33 0 0 -1.33 336.13 162.31)" id="VcdQHbmxbjs_0SfaTd3b6" clip-path="url(#CLIPPATH_194)"  >
<clipPath id="CLIPPATH_194" >
	<path transform="matrix(1 0 0 1 7.62 53.37) translate(-396, -306)" id="path20" d="M 0 612 L 792 612 L 792 0 L 0 0 Z" stroke-linecap="round" />
</clipPath>
<path style="stroke: none; stroke-width: 1; stroke-dasharray: none; stroke-linecap: butt; stroke-dashoffset: 0; stroke-linejoin: miter; stroke-miterlimit: 4; fill: rgb(84,84,86); fill-rule: nonzero; opacity: 1;" vector-effect="non-scaling-stroke"  transform=" translate(5.22, 0.02)" d="M 0 0 C 0 3.167 -1.845 6.021 -5.221 6.021 C -8.563 6.021 -10.442 3.167 -10.442 0 C -10.442 -3.202 -8.563 -6.056 -5.221 -6.056 C -1.845 -6.056 0 -3.202 0 0 M -13.713 0 C -13.713 4.838 -10.442 8.806 -5.220999999999998 8.806 C 0.03500000000000192 8.806 3.2710000000000026 4.837999999999999 3.2710000000000026 0 C 3.2710000000000026 -4.873 0.03500000000000236 -8.841 -5.220999999999998 -8.841 C -10.441999999999998 -8.841 -13.713 -4.872999999999999 -13.713 0" stroke-linecap="round" />
</g>
<g transform="matrix(1.33 0 0 -1.33 362.4 162.59)" id="-w0TnwzUMzAC5pQ8mSq3P" clip-path="url(#CLIPPATH_195)"  >
<clipPath id="CLIPPATH_195" >
	<path transform="matrix(1 0 0 1 -12.07 53.58) translate(-396, -306)" id="path20" d="M 0 612 L 792 612 L 792 0 L 0 0 Z" stroke-linecap="round" />
</clipPath>
<path style="stroke: none; stroke-width: 1; stroke-dasharray: none; stroke-linecap: butt; stroke-dashoffset: 0; stroke-linejoin: miter; stroke-miterlimit: 4; fill: rgb(84,84,86); fill-rule: nonzero; opacity: 1;" vector-effect="non-scaling-stroke"  transform=" translate(4.11, -8.2)" d="M 0 0 L 0 2.297 C -1.287 0.9050000000000002 -3.41 -0.4179999999999997 -5.986 -0.4179999999999997 C -9.571 -0.4179999999999997 -11.346 1.3930000000000002 -11.346 4.942 L -11.346 16.811 L -8.213000000000001 16.811 L -8.213000000000001 5.986 C -8.213000000000001 3.202 -6.8210000000000015 2.3669999999999995 -4.6640000000000015 2.3669999999999995 C -2.7150000000000016 2.3669999999999995 -0.9390000000000014 3.4799999999999995 -1.7763568394002505e-15 4.733 L -1.7763568394002505e-15 16.811 L 3.133 16.811 L 3.133 0 Z" stroke-linecap="round" />
</g>
<g transform="matrix(1.33 0 0 -1.33 382.51 159.53)" id="wht58bPSCW0PySUq7wyjH" clip-path="url(#CLIPPATH_196)"  >
<clipPath id="CLIPPATH_196" >
	<path transform="matrix(1 0 0 1 -27.16 51.28) translate(-396, -306)" id="path20" d="M 0 612 L 792 612 L 792 0 L 0 0 Z" stroke-linecap="round" />
</clipPath>
<path style="stroke: none; stroke-width: 1; stroke-dasharray: none; stroke-linecap: butt; stroke-dashoffset: 0; stroke-linejoin: miter; stroke-miterlimit: 4; fill: rgb(84,84,86); fill-rule: nonzero; opacity: 1;" vector-effect="non-scaling-stroke"  transform=" translate(-2.24, -6.77)" d="M 0 0 L 0 10.337 L -2.785 10.337 L -2.785 13.086 L 0 13.086 L 0 17.681 L 3.132 17.681 L 3.132 13.086 L 6.543 13.086 L 6.543 10.337 L 3.132 10.337 L 3.132 0.695 C 3.132 -0.487 3.689 -1.3570000000000002 4.768 -1.3570000000000002 C 5.499 -1.3570000000000002 6.16 -1.0450000000000002 6.474 -0.6960000000000002 L 7.274 -3.063 C 6.612 -3.689 5.638 -4.143 4.002 -4.143 C 1.357 -4.143 0 -2.646 0 0" stroke-linecap="round" />
</g>
<g transform="matrix(1.33 0 0 -1.33 402.53 158.04)" id="OgTF4cATEYg8PzMbIlaQS" clip-path="url(#CLIPPATH_197)"  >
<clipPath id="CLIPPATH_197" >
	<path transform="matrix(1 0 0 1 -42.17 50.17) translate(-396, -306)" id="path20" d="M 0 612 L 792 612 L 792 0 L 0 0 Z" stroke-linecap="round" />
</clipPath>
<path style="stroke: none; stroke-width: 1; stroke-dasharray: none; stroke-linecap: butt; stroke-dashoffset: 0; stroke-linejoin: miter; stroke-miterlimit: 4; fill: rgb(84,84,86); fill-rule: nonzero; opacity: 1;" vector-effect="non-scaling-stroke"  transform=" translate(4.11, -11.61)" d="M 0 0 L 0 10.824 C 0 13.608 -1.427 14.443999999999999 -3.585 14.443999999999999 C -5.534 14.443999999999999 -7.3100000000000005 13.261 -8.213999999999999 12.008 L -8.213999999999999 0 L -11.346999999999998 0 L -11.346999999999998 23.215 L -8.213999999999999 23.215 L -8.213999999999999 14.443999999999999 C -7.100999999999999 15.802 -4.837999999999999 17.229 -2.262999999999999 17.229 C 1.322000000000001 17.229 3.133000000000001 15.418999999999999 3.133000000000001 11.867999999999999 L 3.133 0 Z" stroke-linecap="round" />
</g>
<g transform="matrix(1.33 0 0 -1.33 428.54 162.31)" id="H1Q00GZwtlcw7Gai4SdIl" clip-path="url(#CLIPPATH_198)"  >
<clipPath id="CLIPPATH_198" >
	<path transform="matrix(1 0 0 1 -61.68 53.37) translate(-396, -306)" id="path20" d="M 0 612 L 792 612 L 792 0 L 0 0 Z" stroke-linecap="round" />
</clipPath>
<path style="stroke: none; stroke-width: 1; stroke-dasharray: none; stroke-linecap: butt; stroke-dashoffset: 0; stroke-linejoin: miter; stroke-miterlimit: 4; fill: rgb(84,84,86); fill-rule: nonzero; opacity: 1;" vector-effect="non-scaling-stroke"  transform=" translate(-5.03, 1.24)" d="M 0 0 L 10.268 0 C 10.198 2.228 8.701 5.013 5.151 5.013 C 1.775 5.013 0.174 2.298 0 0 M 5.151 7.588 C 10.198 7.588 13.33 3.6550000000000002 13.33 -1.4959999999999996 L 13.33 -2.262 L 0.035 -2.262 C 0.278 -5.116 2.367 -7.481999999999999 5.743 -7.481999999999999 C 7.518000000000001 -7.481999999999999 9.467 -6.786 10.72 -5.498999999999999 L 12.182 -7.552999999999999 C 10.512 -9.187999999999999 8.145 -10.059 5.430000000000001 -10.059 C 0.41800000000000104 -10.059 -3.271 -6.507999999999999 -3.271 -1.218 C -3.271 3.6550000000000002 0.24400000000000022 7.587999999999999 5.151000000000001 7.587999999999999" stroke-linecap="round" />
</g>
<g transform="matrix(1.33 0 0 -1.33 450.6 162.06)" id="dm41nXYou91OtTAeWMd3D" clip-path="url(#CLIPPATH_199)"  >
<clipPath id="CLIPPATH_199" >
	<path transform="matrix(1 0 0 1 -78.23 53.18) translate(-396, -306)" id="path20" d="M 0 612 L 792 612 L 792 0 L 0 0 Z" stroke-linecap="round" />
</clipPath>
<path style="stroke: none; stroke-width: 1; stroke-dasharray: none; stroke-linecap: butt; stroke-dashoffset: 0; stroke-linejoin: miter; stroke-miterlimit: 4; fill: rgb(84,84,86); fill-rule: nonzero; opacity: 1;" vector-effect="non-scaling-stroke"  transform=" translate(-4.32, -8.6)" d="M 0 0 L 0 16.811 L 3.133 16.811 L 3.133 14.235 C 4.42 15.905999999999999 6.404 17.192999999999998 8.632 17.192999999999998 L 8.632 14.025999999999998 C 8.318 14.095999999999998 7.971 14.130999999999998 7.553 14.130999999999998 C 5.986 14.130999999999998 3.863 12.947 3.133 11.693999999999999 L 3.133 0 Z" stroke-linecap="round" />
</g>
<g transform="matrix(1.33 0 0 -1.33 470.18 162.03)" id="AAB4c29R8uYuuzEY3My3W" clip-path="url(#CLIPPATH_200)"  >
<clipPath id="CLIPPATH_200" >
	<path transform="matrix(1 0 0 1 -92.91 53.16) translate(-396, -306)" id="path20" d="M 0 612 L 792 612 L 792 0 L 0 0 Z" stroke-linecap="round" />
</clipPath>
<path style="stroke: none; stroke-width: 1; stroke-dasharray: none; stroke-linecap: butt; stroke-dashoffset: 0; stroke-linejoin: miter; stroke-miterlimit: 4; fill: rgb(84,84,86); fill-rule: nonzero; opacity: 1;" vector-effect="non-scaling-stroke"  transform=" translate(4.11, -8.61)" d="M 0 0 L 0 10.755 C 0 13.539000000000001 -1.427 14.444 -3.585 14.444 C -5.534 14.444 -7.3100000000000005 13.261000000000001 -8.213999999999999 12.008000000000001 L -8.213999999999999 0 L -11.346999999999998 0 L -11.346999999999998 16.811 L -8.213999999999999 16.811 L -8.213999999999999 14.443999999999999 C -7.100999999999999 15.802 -4.872999999999998 17.229 -2.262999999999999 17.229 C 1.2880000000000011 17.229 3.133000000000001 15.35 3.133000000000001 11.799 L 3.133 0 Z" stroke-linecap="round" />
</g>
<g transform="matrix(1.33 0 0 -1.33 511.31 158.07)" id="cAuOrsNbQs1nBSdMEzWrG" clip-path="url(#CLIPPATH_201)"  >
<clipPath id="CLIPPATH_201" >
	<path transform="matrix(1 0 0 1 -123.76 50.19) translate(-396, -306)" id="path20" d="M 0 612 L 792 612 L 792 0 L 0 0 Z" stroke-linecap="round" />
</clipPath>
<path style="stroke: none; stroke-width: 1; stroke-dasharray: none; stroke-linecap: butt; stroke-dashoffset: 0; stroke-linejoin: miter; stroke-miterlimit: 4; fill: rgb(84,84,86); fill-rule: nonzero; opacity: 1;" vector-effect="non-scaling-stroke"  transform=" translate(-10.56, 0)" d="M 0 0 C 0 7.136 5.291 12.008 11.904 12.008 C 16.463 12.008 19.317 9.815 21.127000000000002 7.100999999999999 L 18.169 5.534 C 16.95 7.483 14.653 8.91 11.904 8.91 C 7.205 8.91 3.585 5.221 3.585 0 C 3.585 -5.186 7.205 -8.91 11.904 -8.91 C 14.653 -8.91 16.95 -7.482 18.169 -5.534000000000001 L 21.127 -7.1 C 19.282 -9.814 16.463 -12.008 11.904 -12.008 C 5.291 -12.008 0 -7.135 0 0" stroke-linecap="round" />
</g>
<g transform="matrix(1.33 0 0 -1.33 538.29 162.31)" id="hIzBlHQx2AT6ICOsQjUxd" clip-path="url(#CLIPPATH_202)"  >
<clipPath id="CLIPPATH_202" >
	<path transform="matrix(1 0 0 1 -144 53.37) translate(-396, -306)" id="path20" d="M 0 612 L 792 612 L 792 0 L 0 0 Z" stroke-linecap="round" />
</clipPath>
<path style="stroke: none; stroke-width: 1; stroke-dasharray: none; stroke-linecap: butt; stroke-dashoffset: 0; stroke-linejoin: miter; stroke-miterlimit: 4; fill: rgb(84,84,86); fill-rule: nonzero; opacity: 1;" vector-effect="non-scaling-stroke"  transform=" translate(4.11, -1.86)" d="M 0 0 C -0.939 1.254 -2.575 1.915 -4.315 1.915 C -6.578 1.915 -8.18 0.558 -8.18 -1.427 C -8.18 -3.41 -6.577999999999999 -4.768000000000001 -4.3149999999999995 -4.768000000000001 C -2.5749999999999993 -4.768000000000001 -0.9389999999999996 -4.106000000000001 8.881784197001252e-16 -2.854000000000001 z M 0 -6.543 L 0 -4.698 C -1.322 -6.16 -3.237 -6.961 -5.499 -6.961 C -8.283 -6.961 -11.347 -5.081 -11.347 -1.3920000000000003 C -11.347 2.437 -8.318 4.106999999999999 -5.499 4.106999999999999 C -3.2369999999999997 4.106999999999999 -1.2879999999999994 3.3769999999999993 0 1.8799999999999994 L 0 4.664 C 0 6.753 -1.705 8.006 -4.107 8.006 C -6.021 8.006 -7.657 7.274 -9.153 5.7780000000000005 L -10.511000000000001 7.936 C -8.632000000000001 9.78 -6.335000000000001 10.686 -3.620000000000001 10.686 C 0.03499999999999881 10.686 3.132999999999999 9.085 3.132999999999999 4.804 L 3.132999999999999 -6.543 Z" stroke-linecap="round" />
</g>
<g transform="matrix(1.33 0 0 -1.33 556.71 158.04)" id="W9NJIJsMUBCWNvBMiicx_" clip-path="url(#CLIPPATH_203)"  >
<clipPath id="CLIPPATH_203" >
	<path transform="matrix(1 0 0 1 -157.81 50.17) translate(-396, -306)" id="path20" d="M 0 612 L 792 612 L 792 0 L 0 0 Z" stroke-linecap="round" />
</clipPath>
<path style="stroke: none; stroke-width: 1; stroke-dasharray: none; stroke-linecap: butt; stroke-dashoffset: 0; stroke-linejoin: miter; stroke-miterlimit: 4; fill: rgb(84,84,86); fill-rule: nonzero; opacity: 1;" vector-effect="non-scaling-stroke"  transform=" translate(-553.81, -255.83)" d="M 552.244 267.437 L 555.3770000000001 267.437 L 555.3770000000001 244.222 L 552.244 244.222 z" stroke-linecap="round" />
</g>
<g transform="matrix(1.33 0 0 -1.33 567.48 157.77)" id="TzHRcn_yzkkO4cUCDhHFD" clip-path="url(#CLIPPATH_204)"  >
<clipPath id="CLIPPATH_204" >
	<path transform="matrix(1 0 0 1 -165.88 49.96) translate(-396, -306)" id="path20" d="M 0 612 L 792 612 L 792 0 L 0 0 Z" stroke-linecap="round" />
</clipPath>
<path style="stroke: none; stroke-width: 1; stroke-dasharray: none; stroke-linecap: butt; stroke-dashoffset: 0; stroke-linejoin: miter; stroke-miterlimit: 4; fill: rgb(84,84,86); fill-rule: nonzero; opacity: 1;" vector-effect="non-scaling-stroke"  transform=" translate(-561.88, -256.04)" d="M 560.352 261.032 L 563.485 261.032 L 563.485 244.22099999999998 L 560.352 244.22099999999998 z M 559.865 265.83599999999996 C 559.865 266.94899999999996 560.8050000000001 267.85499999999996 561.884 267.85499999999996 C 562.998 267.85499999999996 563.902 266.94899999999996 563.902 265.83599999999996 C 563.902 264.722 562.998 263.852 561.884 263.852 C 560.8050000000001 263.852 559.865 264.722 559.865 265.83599999999996" stroke-linecap="round" />
</g>
<g transform="matrix(1.33 0 0 -1.33 580.66 157.81)" id="STEHaaHqEDiiS8VgscWG_" clip-path="url(#CLIPPATH_205)"  >
<clipPath id="CLIPPATH_205" >
	<path transform="matrix(1 0 0 1 -175.77 50) translate(-396, -306)" id="path20" d="M 0 612 L 792 612 L 792 0 L 0 0 Z" stroke-linecap="round" />
</clipPath>
<path style="stroke: none; stroke-width: 1; stroke-dasharray: none; stroke-linecap: butt; stroke-dashoffset: 0; stroke-linejoin: miter; stroke-miterlimit: 4; fill: rgb(84,84,86); fill-rule: nonzero; opacity: 1;" vector-effect="non-scaling-stroke"  transform=" translate(0.59, 2.28)" d="M 0 0 L 0 -14.062 L -3.133 -14.062 L -3.133 0 L -5.917 0 L -5.917 2.749 L -3.133 2.749 L -3.133 3.8630000000000004 C -3.133 7.4830000000000005 -1.0099999999999998 9.502 1.9829999999999997 9.502 C 3.0629999999999997 9.502 4.003 9.293000000000001 4.733 8.875 L 4.003 6.543 C 3.585 6.787 3.063 6.926 2.506 6.926 C 0.939 6.926 0 5.882 0 3.863 L 0 2.749 L 3.411 2.749 L 3.411 0 Z" stroke-linecap="round" />
</g>
<g transform="matrix(1.33 0 0 -1.33 599.91 162.31)" id="56s-VmS7K-bYzidZwgYqN" clip-path="url(#CLIPPATH_206)"  >
<clipPath id="CLIPPATH_206" >
	<path transform="matrix(1 0 0 1 -190.21 53.37) translate(-396, -306)" id="path20" d="M 0 612 L 792 612 L 792 0 L 0 0 Z" stroke-linecap="round" />
</clipPath>
<path style="stroke: none; stroke-width: 1; stroke-dasharray: none; stroke-linecap: butt; stroke-dashoffset: 0; stroke-linejoin: miter; stroke-miterlimit: 4; fill: rgb(84,84,86); fill-rule: nonzero; opacity: 1;" vector-effect="non-scaling-stroke"  transform=" translate(5.22, 0.02)" d="M 0 0 C 0 3.167 -1.845 6.021 -5.221 6.021 C -8.562000000000001 6.021 -10.440999999999999 3.167 -10.440999999999999 0 C -10.440999999999999 -3.202 -8.562 -6.056 -5.220999999999999 -6.056 C -1.845 -6.056 0 -3.202 0 0 M -13.713 0 C -13.713 4.838 -10.440999999999999 8.806 -5.220999999999998 8.806 C 0.03500000000000192 8.806 3.272000000000002 4.837999999999999 3.272000000000002 0 C 3.272000000000002 -4.873 0.03500000000000192 -8.841 -5.220999999999998 -8.841 C -10.440999999999999 -8.841 -13.713 -4.872999999999999 -13.713 0" stroke-linecap="round" />
</g>
<g transform="matrix(1.33 0 0 -1.33 622.27 162.06)" id="cC005sITXip3o2hJTNy-V" clip-path="url(#CLIPPATH_207)"  >
<clipPath id="CLIPPATH_207" >
	<path transform="matrix(1 0 0 1 -206.98 53.18) translate(-396, -306)" id="path20" d="M 0 612 L 792 612 L 792 0 L 0 0 Z" stroke-linecap="round" />
</clipPath>
<path style="stroke: none; stroke-width: 1; stroke-dasharray: none; stroke-linecap: butt; stroke-dashoffset: 0; stroke-linejoin: miter; stroke-miterlimit: 4; fill: rgb(84,84,86); fill-rule: nonzero; opacity: 1;" vector-effect="non-scaling-stroke"  transform=" translate(-4.32, -8.6)" d="M 0 0 L 0 16.811 L 3.133 16.811 L 3.133 14.235 C 4.42 15.905999999999999 6.404 17.192999999999998 8.632 17.192999999999998 L 8.632 14.025999999999998 C 8.318 14.095999999999998 7.971 14.130999999999998 7.553 14.130999999999998 C 5.986 14.130999999999998 3.863 12.947 3.133 11.693999999999999 L 3.133 0 Z" stroke-linecap="round" />
</g>
<g transform="matrix(1.33 0 0 -1.33 641.86 162.03)" id="sR-SFmuB1nY1DwyYt428l" clip-path="url(#CLIPPATH_208)"  >
<clipPath id="CLIPPATH_208" >
	<path transform="matrix(1 0 0 1 -221.67 53.16) translate(-396, -306)" id="path20" d="M 0 612 L 792 612 L 792 0 L 0 0 Z" stroke-linecap="round" />
</clipPath>
<path style="stroke: none; stroke-width: 1; stroke-dasharray: none; stroke-linecap: butt; stroke-dashoffset: 0; stroke-linejoin: miter; stroke-miterlimit: 4; fill: rgb(84,84,86); fill-rule: nonzero; opacity: 1;" vector-effect="non-scaling-stroke"  transform=" translate(4.11, -8.61)" d="M 0 0 L 0 10.755 C 0 13.539000000000001 -1.427 14.444 -3.585 14.444 C -5.534 14.444 -7.3100000000000005 13.261000000000001 -8.213999999999999 12.008000000000001 L -8.213999999999999 0 L -11.346999999999998 0 L -11.346999999999998 16.811 L -8.213999999999999 16.811 L -8.213999999999999 14.443999999999999 C -7.100999999999999 15.802 -4.872999999999998 17.229 -2.262999999999999 17.229 C 1.2880000000000011 17.229 3.133000000000001 15.35 3.133000000000001 11.799 L 3.133 0 Z" stroke-linecap="round" />
</g>
<g transform="matrix(1.33 0 0 -1.33 660.18 157.77)" id="4dsBDRnVdPjNI3aYQTzU7" clip-path="url(#CLIPPATH_209)"  >
<clipPath id="CLIPPATH_209" >
	<path transform="matrix(1 0 0 1 -235.41 49.96) translate(-396, -306)" id="path20" d="M 0 612 L 792 612 L 792 0 L 0 0 Z" stroke-linecap="round" />
</clipPath>
<path style="stroke: none; stroke-width: 1; stroke-dasharray: none; stroke-linecap: butt; stroke-dashoffset: 0; stroke-linejoin: miter; stroke-miterlimit: 4; fill: rgb(84,84,86); fill-rule: nonzero; opacity: 1;" vector-effect="non-scaling-stroke"  transform=" translate(-631.41, -256.04)" d="M 629.88 261.032 L 633.013 261.032 L 633.013 244.22099999999998 L 629.88 244.22099999999998 z M 629.3919999999999 265.83599999999996 C 629.3919999999999 266.94899999999996 630.332 267.85499999999996 631.411 267.85499999999996 C 632.525 267.85499999999996 633.43 266.94899999999996 633.43 265.83599999999996 C 633.43 264.722 632.525 263.852 631.411 263.852 C 630.332 263.852 629.3919999999999 264.722 629.3919999999999 265.83599999999996" stroke-linecap="round" />
</g>
<g transform="matrix(1.33 0 0 -1.33 677.3 162.31)" id="2SPg8ikX7exMCbtakLm1u" clip-path="url(#CLIPPATH_210)"  >
<clipPath id="CLIPPATH_210" >
	<path transform="matrix(1 0 0 1 -248.25 53.37) translate(-396, -306)" id="path20" d="M 0 612 L 792 612 L 792 0 L 0 0 Z" stroke-linecap="round" />
</clipPath>
<path style="stroke: none; stroke-width: 1; stroke-dasharray: none; stroke-linecap: butt; stroke-dashoffset: 0; stroke-linejoin: miter; stroke-miterlimit: 4; fill: rgb(84,84,86); fill-rule: nonzero; opacity: 1;" vector-effect="non-scaling-stroke"  transform=" translate(4.11, -1.86)" d="M 0 0 C -0.939 1.254 -2.575 1.915 -4.315 1.915 C -6.578 1.915 -8.18 0.558 -8.18 -1.427 C -8.18 -3.41 -6.577999999999999 -4.768000000000001 -4.3149999999999995 -4.768000000000001 C -2.5749999999999993 -4.768000000000001 -0.9389999999999996 -4.106000000000001 8.881784197001252e-16 -2.854000000000001 z M 0 -6.543 L 0 -4.698 C -1.322 -6.16 -3.237 -6.961 -5.499 -6.961 C -8.283 -6.961 -11.347 -5.081 -11.347 -1.3920000000000003 C -11.347 2.437 -8.318 4.106999999999999 -5.499 4.106999999999999 C -3.2369999999999997 4.106999999999999 -1.2879999999999994 3.3769999999999993 0 1.8799999999999994 L 0 4.664 C 0 6.753 -1.705 8.006 -4.107 8.006 C -6.021 8.006 -7.657 7.274 -9.153 5.7780000000000005 L -10.511000000000001 7.936 C -8.632000000000001 9.78 -6.335000000000001 10.686 -3.620000000000001 10.686 C 0.03499999999999881 10.686 3.132999999999999 9.085 3.132999999999999 4.804 L 3.132999999999999 -6.543 Z" stroke-linecap="round" />
</g>
</svg>