<?xml version="1.0" encoding="utf-8"?>
<!-- Generator: Adobe Illustrator 23.1.1, SVG Export Plug-In . SVG Version: 6.00 Build 0)  -->
<svg version="1.1" id="Layer_1" xmlns="http://www.w3.org/2000/svg" xmlns:xlink="http://www.w3.org/1999/xlink" x="0px" y="0px"
	 width="561.6px" height="118.1px" viewBox="0 0 561.6 118.1" style="enable-background:new 0 0 561.6 118.1;" xml:space="preserve"
	>
<style type="text/css">
	.st0{fill:#321916;}
	.st1{fill-rule:evenodd;clip-rule:evenodd;fill:#321916;}
</style>
<g>
	<g>
		<path class="st0" d="M556.1,7.5l2.5,3.4c-1.2,10.1,0.5,20.4,0.5,29.9l-2.1,1.8c-8.3,0.5-17.7,0.9-25.6-0.5
			c-4-3.4,1.4-12.2-6.4-13.6c-3.9-0.9-6.8,1.3-9,3.4c-2.4,4.9-2.7,11.6-1.3,17.1c2,4.9,6.3,6.5,10.7,8.1c12,2.3,22.3-2,33.3-3
			c1.7,0.6,3,2,3,3.8l-5.9,26.1c-11.3,7-26.2,6.3-40.1,5.6c-15.2-1.5-31.2-11.7-35.1-26.9c-4.4-19.2-3.1-42.8,14.1-54.2
			C511.7-4,538.3-1.2,556.1,7.5L556.1,7.5z"/>
		<path class="st0" d="M315.7,2c2.5,1.4,2.4,4.5,1.7,6.8l-2.5,3.9c-0.7,21.5-0.7,43.7,0,65.2c1.8,2,4,5,2.5,8.2l-2.5,2.1l-37.1-0.5
			c-1.8-1.7-2.1-4.5-1.3-6.8l2.5-3.9l0.5-62.7c-0.9-3.6-5.2-6.3-3-10.7l2.5-2.1C291.5,2.4,303.5,1.9,315.7,2L315.7,2z"/>
		<path class="st0" d="M386.4,1.5c3,1.1,3.4,4.7,3.8,7.7c0,8.1,3.4,15.9,2.1,23.5c-6.2,5-11.7-6.4-17.1,0l0.5,44.3
			c1.5,3,4.5,6.4,2.1,9.8l-1.8,1.3l-37.5-0.5c-4.6-4.1,1.1-8.2,1.7-12.3V32.7c-0.2-1.1-1.4-1.8-2.1-2.6c-6-1.7-11,8.1-15.8,0.8
			c1.5-9,3.8-17.9,4.6-27.3l3.1-2.1C348.4,2.8,368.2,2.8,386.4,1.5L386.4,1.5z"/>
		<path class="st0" d="M464.5,1.5c3.2,0.7,2.6,4.6,3.8,6.9l3.4,15.8c-5.5,5.5-11.7-1.4-18.4-0.5c-6-0.5-13.3-0.9-19.2,0.5
			c-1.5,2-0.5,5.1-0.8,7.7c5.7,3,13.6,1.4,20,1.2c3.4-0.8,7.7-3.7,11.1-0.8c0.5,7.6,0.9,14.6-0.5,21.8c-3.8,2.3-7.8-0.5-11.5-1.3
			c-6,0.2-12.8-0.7-18.4,0.8c-1.5,2.1-0.5,5.5-0.8,8.2l2.6,1.7c12.6,0.6,24.4-0.6,35.4-3.8c1.2,0,2.5,1.3,2.5,2.5
			c-2.5,7.8-3.7,16.2-5.6,24.3l-2.1,1.8l-67.3-0.5c-3.9-3.6-0.1-7.1,1.2-10.7l0.5-62.7c-0.8-3.8-5.6-7.1-2.6-11.5l2.6-1.3
			C421.6,3.4,443.2,1.5,464.5,1.5L464.5,1.5z"/>
	</g>
	<path class="st0" d="M24,118c0-0.1,0.1-0.1,0.1-0.2h-3.7C21.7,117.9,22.9,118,24,118z"/>
	<path class="st0" d="M85.4,118l1.2-0.2h-1.3C85.3,117.9,85.4,117.9,85.4,118z"/>
	<path class="st0" d="M85.5,94.7L75.3,92c-3.8,7-6.2,14.3-9.6,21.4l-14.8-2.6l-1.3-1.1l5.2-22.7c-1.5-0.7-3.2-2-4.8-0.6l-14.2,15.6
		l-4.9,1.6c0,0-2.9,10.7-3.9,14.3h54.4l-5.2-6.4C78.9,106.1,83.3,100.6,85.5,94.7z"/>
	<path class="st0" d="M16,95.1c2.2-11.5,3.4-23.2,6.5-34.4c-5.3,3.1-14,4.9-11.6,13.5c-0.9,0.2-1.8-0.2-2.5-0.5l0.9-8.6l15.1-9.3
		c2.1-5.8,4.3-11.6,6-17.4c7.5-11.7,12.5-27.4,26.7-31.7c0,0,0,0-0.3,0l9.4-4.8l3.4-0.5H0v116.4h9.5c-0.4-0.2-0.8-0.3-1.2-0.5
		L16,95.1z"/>
	<path class="st0" d="M45.9,17c-5.3,8.9-11.2,17-14,26.1C20.1,66,23.6,92.7,11.8,115.5c2.6,1.4,5.7,2,8.7,2.3h3.7
		c3.3-6.3,0.1-18,10.2-18.7l26.4-28.7l1.3,1.1c-0.2,4.6-5.9,7-7.9,12.1c9.5,3.1,19.9,5.4,28.9,7.3l-9.9-19.3c-1.8-1.3,1-2.7,1.8-2.4
		l14.6,24.9c-2.2,5.1-6.2,10.1-9.4,15c-1.7,3.8,3.1,5.9,5,8.7h1.3l6.3-1.2c5-12.1,13.2-24.2,23.4-34.3c-2.1-6.3-4.8-12.8-6.1-19
		l2.5-0.4c2.2,6,4.1,12.3,6,18.5c4.6,2.4,10.9,3.4,11.2,9.9c3.6,4.7,10.2,5.7,16.1,5.7l5.9,6l11.4-3.4c1.8,0.9,3.4,2.3,5.7,1.3
		l-2.9-7.6c6.6-4.9,12-11.3,17-17.7c-8,2.2-17,4-25.2,4.9c-3.8-8.2,6.4-10.3,9.1-16.1c-4.8-0.7-12.4-0.5-18.3-1.6
		c0.5-13.1-10.8-19.3-12.9-30.7l-9.8-6.2c-2.3-4.7-5.8-8.9-11.5-9.4c0,0-14.6-13-17-15.1h-3.9c-7,1-29.9,4.3-29.9,4.3L45.9,17z"/>
	<polygon class="st0" points="52.6,107.9 64.4,110.1 72.3,91.2 57.8,87.8 	"/>
	<path class="st0" d="M250.9,71.3l-0.4-1.7c17-6.9,23.2-24.2,20.4-39.6C268.4,13,251.2,2.2,234.8,1.6c-16.2-0.7-33.5-0.6-51.1-0.2
		h-81.8c7.4,6.1,13,13.9,22.3,15.8c0.9,7.3,9.4,9.8,13.9,13.8c2.1,11.2,13.5,17.7,13.2,29.9c7.3,0.4,14.9,0,22.1,1.1l-12.9,13.6
		l-0.2,2.1c9-2,18.8-2.6,26.6-6.3c0.5,0.5,1.4,0.7,1.5,1.4c-5.8,8-11.8,16.2-18.9,21.4c0.3,3.2,2.7,5.8,2.6,8.9L166,104
		c-4.7-2.4-10,1.7-14.9,2.5c-1.9-2.7-4.5-3.7-6-6.7c-3.9-0.3-7.6-0.7-11.3-1.8c-5.5-1.2-6.1-6.4-8.2-10.7l-6.4-2.8
		c-1.9,1.2-4.9,2.9-5.9,5.9c2.8,5.4,10.3,16.5,12.3,21.7c0,0-6,3.8-8.8,5.7h69.4c1.1,0.2,2.3,0.3,3.6,0.3l10.6-1.7
		c2.6-1.8,4-5,3.3-8.5c-6.5-7-3.4-17.8-4.3-27.2c0.7-0.9,1.7-1.3,2.6-1.8c8.5,5.3,12.3,13.8,16.2,22.1c1.5,5.3-3.3,14.9,5.1,15.8
		c-0.1-0.1,43.8-0.5,43.8-0.5c3.4-1.4,4.8-5.3,3.8-9C263.2,95.8,262.4,80.9,250.9,71.3z M226.6,45.4c-1.2,3-3.6,5.6-6.4,6.9
		c-3.9,0.6-15.1,2.6-18.8,0c-1.5-5.8-0.6-15.7-0.8-22.1c4.2-5,18.2-1.7,23,0.5C226.2,33.8,227.9,41,226.6,45.4z"/>
	<path class="st0" d="M96.1,116.5C96.1,116.5,96.1,116.5,96.1,116.5l-0.6,1.3h16.4c-3.1-4-7.8-10.6-10.1-13.1L96.1,116.5z"/>
	<path class="st0" d="M111.4,92.8c-2.6,2.5-6.3,5.8-8,9.1l10.2,14c2.4-2,5.9-2.5,8.1-4.9L111.4,92.8z"/>
	<g>
		<path class="st1" d="M283.7,106.6c-0.8,0-0.9-0.2-0.9-0.9c0-0.3,0-0.6,0-1.1v-1.1c0-1,0.1-1.4,0.9-1.4c1.1,0,2,1,2,2.4
			C285.6,105.9,285,106.6,283.7,106.6z M288.5,116.4h3c1.7,0,2.5-0.6,2.5-1.9c0-1.1-1.1-0.8-1.7-1.6l-3.3-4
			c-0.2-0.2-0.3-0.4-0.3-0.5c0-0.2,0.2-0.3,0.4-0.4c1.3-0.9,2-1.9,2-3.5c0-3.1-2.2-4.9-6.4-4.9c-0.7,0-2.2,0.1-4.3,0.1
			c-0.9,0-1.9-0.1-2.9-0.1c-1.2,0-1.7,0.1-1.7,1.2c0,1.2,0.8,1.1,1.2,1.5c0.4,0.4,0.4,2.1,0.4,5.6v1.3c0,2.9-0.1,4.5-0.5,4.9
			c-0.5,0.4-1,0.1-1,1.4c0,1.1,0.6,1.1,1.9,1.1h0.4c0.9,0,1.8,0,2.9,0c0.8,0,1.5,0.1,2.3,0.1c1.3,0,1.9,0,1.9-1.4c0-1-0.6-1-1.3-1.1
			c-0.9-0.3-1-1.1-1-3.6c0-0.8,0-1.2,0.6-1.2c0.5,0,0.9,1.1,2,3.3l1.5,3.1C287.5,116.4,287.6,116.4,288.5,116.4z"/>
		<path class="st1" d="M296.2,108.9c0,3-0.1,4.7-0.5,5c-0.5,0.4-1,0.1-1,1.4c0,0.9,0.4,1.1,1.3,1.1c2.8,0,4.8,0,6,0h3.3
			c1.9,0,2.9,0,3.1,0c0.8,0,1-0.2,1.1-0.9c0.2-1.3,0.3-2.9,0.3-4.1c0-0.9-0.2-1.3-0.9-1.3c-0.9,0-1,1.1-1.6,1.9
			c-0.6,0.8-2,1.5-3.6,1.5c-1.7,0-1.8-0.9-1.8-2.8v-0.7c0-1,0-1.4,0.6-1.4c0.6,0,0.9,0.5,1.1,1.6c0.2,0.7,0.4,1.1,1.1,1.1
			c0.9,0,1.1-0.4,1.1-1.3c0-0.3,0-0.9,0-1.8v-2.1c0-1.4-0.1-2-1-2c-1.1,0-1.1,0.7-1.2,1.2c-0.2,0.4-0.5,0.7-1,0.7
			c-0.7,0-0.7-0.3-0.7-1.4v-1.2c0-0.9,0-1.2,0.8-1.2c0.1,0,0.5,0,1.1,0c1.8,0,2.9,0.3,3.4,1.6c0.3,0.8,0.3,1.5,1.1,1.5
			c0.9,0,0.9-0.6,0.9-1.6v-3.2c0-1.1-0.2-1.2-1-1.2c-0.3,0-2.6,0.1-7,0.1c-3,0-4.7-0.1-5.1-0.1c-0.9,0-1.2,0.2-1.2,1.2
			c0,1.2,0.8,1.1,1.2,1.5c0.4,0.4,0.4,2.1,0.4,5.5V108.9z"/>
		<path class="st1" d="M312.8,111.1c-0.5,1.3-0.8,2.2-1.3,2.6c-0.3,0.3-0.7,0.5-1.1,0.7c-0.2,0.1-0.4,0.5-0.4,1
			c0,0.7,0.2,1.1,1.1,1.1c0.5,0,1.1-0.1,1.9-0.1c0.7,0,1.4,0,2.1,0c1.1,0,1.3-0.4,1.3-1.3c0-0.5-0.2-0.8-0.7-1
			c-0.6-0.2-0.9-0.2-0.9-1c0-1,0.8-1.1,2.5-1.1h0.7c0.1,0,0.6,0,1.4,0c0.9,0,1.5,0.2,1.5,0.9c0,0.5-0.3,0.7-0.8,1
			c-0.6,0.4-0.7,0.7-0.7,1.2c0,0.9,0.3,1.2,1.4,1.2c0.7,0,1.8-0.1,3.3-0.1c1.2,0,2.2,0,3.3,0h0.2c1.1,0,1.2-0.3,1.2-1.3
			c0-0.7-0.3-0.9-0.8-1.2c-0.8-0.4-1.2-1.5-1.8-3l-4.5-10.6c-0.4-1.1-0.5-1.2-2.4-1.2c-1.7,0-2,0.3-2.5,1.6L312.8,111.1z
			 M318.1,105.2c0.3,0,0.4,0.4,0.7,1.1c0.5,1.6,0.6,2.5,0.6,2.7c0,0.3-0.3,0.4-1.1,0.4h-0.9c-0.6,0-1,0-1-0.4c0-0.3,0.3-1.6,1.2-3.3
			C317.8,105.4,318,105.2,318.1,105.2z"/>
		<path class="st1" d="M330.7,108.9c0,3-0.1,4.7-0.5,5c-0.5,0.4-1,0.1-1,1.4c0,0.9,0.4,1.1,1.3,1.1c1.2,0,2.1,0,2.7,0h2.2
			c4.5,0,6.9,0.1,7.3,0.1c0.6,0,0.8-0.1,0.9-0.7c0-0.2,0.1-1.1,0.2-2.6c0.1-1.5,0.1-2.3,0.1-2.3c0-0.7-0.3-1-0.9-1
			c-0.9,0-1.2,0.9-1.8,2c-0.8,1.2-1.6,1.6-3.3,1.6c-0.8,0-1.3-0.1-1.4-0.4c-0.2-0.6-0.2-2-0.2-4.1v-1.3c0-3.4,0-5.2,0.4-5.6
			c0.4-0.4,1.2-0.4,1.2-1.4c0-1-0.3-1.3-1.3-1.3c-0.4,0-1.5,0-3.1,0c-1.6,0-2.7,0-3.1,0c-0.9,0-1.2,0.2-1.2,1.2
			c0,1.2,0.8,1.1,1.2,1.5c0.4,0.4,0.4,2.1,0.4,5.5V108.9z"/>
		<path class="st1" d="M360.1,104.1c-1,3.1-1.5,4.7-1.8,4.7c-0.1,0-0.2-0.1-0.3-0.3c-0.3-0.5-0.4-1.2-0.7-2.2
			c-0.6-2-0.8-3.1-0.8-3.1c0-0.1-0.1-0.3-0.1-0.7c0-0.9,0.8-0.8,0.8-1.8c0-1-0.2-1.2-1.1-1.2c-0.6,0-1.7,0.1-3.4,0.1
			c-1.1,0-1.9-0.1-2.4-0.1c-0.8,0-1.2,0.4-1.2,1.2c0,1,0.6,1.2,0.9,1.4c0.4,0.4,0.8,1.1,1.2,2.3l3.3,9.5c0.7,2.1,1,3,2.2,3
			c1.4,0,2.1-1.6,3.4-5.1c0.8-2,1-3.2,1.4-3.2c0.3,0,0.5,1.1,1.2,3.1c1.3,3.7,1.8,5.2,3.2,5.2c1.2,0,1.5-1,2.4-3.2l4-10.4
			c0.5-1.2,0.9-1.2,1.2-1.4c0.4-0.3,0.6-0.7,0.6-1.2c0-0.8-0.3-1.1-0.9-1.1c-0.2,0-0.9,0.1-2.1,0.1c-1,0-1.7-0.1-2.2-0.1
			c-0.8,0-1.2,0.2-1.2,1.3c0,0.6,0.2,0.9,0.7,1.2c0.4,0.2,0.7,0.5,0.7,1.2c0,0.5-0.3,2-1.1,4.3c-0.3,0.9-0.4,1.4-0.7,1.4
			c-0.2,0-0.3-0.5-0.6-1.4c-0.8-3-1.1-4.7-1.1-4.8c0-0.8,1.1-0.6,1.1-2.1c0-0.8-0.4-1-1-1c-0.8,0-1.7,0.1-2.8,0.1h-0.7
			c-1.2,0-2.1-0.1-2.6-0.1c-0.9,0-1.4,0.2-1.4,1.2c0,1.2,0.4,1.2,1,1.5C359.6,102.3,359.9,103,360.1,104.1z"/>
		<path class="st1" d="M381.8,116.7c5.4,0,8.6-3.3,8.6-8.5c0-5.7-2.9-9-7.7-9c-5.4,0-8.7,3.5-8.7,9.2
			C374,113.9,376.7,116.7,381.8,116.7z M381.9,102.1c1.5,0,2.4,2.8,2.4,7.8c0,2.5-0.6,3.8-1.7,3.8c-1.5,0-2.5-2.6-2.5-7.1
			C380.1,103.6,380.6,102.1,381.9,102.1z"/>
		<path class="st1" d="M399.7,106.6c-0.8,0-0.9-0.2-0.9-0.9c0-0.3,0-0.6,0-1.1v-1.1c0-1,0.1-1.4,0.9-1.4c1.1,0,2,1,2,2.4
			C401.7,105.9,401,106.6,399.7,106.6z M404.6,116.4h3c1.7,0,2.5-0.6,2.5-1.9c0-1.1-1.1-0.8-1.7-1.6l-3.3-4
			c-0.2-0.2-0.3-0.4-0.3-0.5c0-0.2,0.2-0.3,0.4-0.4c1.3-0.9,2-1.9,2-3.5c0-3.1-2.2-4.9-6.4-4.9c-0.7,0-2.2,0.1-4.3,0.1
			c-0.9,0-1.9-0.1-2.9-0.1c-1.2,0-1.7,0.1-1.7,1.2c0,1.2,0.8,1.1,1.2,1.5c0.4,0.4,0.4,2.1,0.4,5.6v1.3c0,2.9-0.1,4.5-0.5,4.9
			c-0.5,0.4-1,0.1-1,1.4c0,1.1,0.6,1.1,1.9,1.1h0.4c0.9,0,1.8,0,2.9,0c0.8,0,1.5,0.1,2.3,0.1c1.3,0,1.9,0,1.9-1.4c0-1-0.6-1-1.3-1.1
			c-0.9-0.3-1-1.1-1-3.6c0-0.8,0-1.2,0.6-1.2c0.5,0,0.9,1.1,2,3.3l1.5,3.1C403.5,116.4,403.6,116.4,404.6,116.4z"/>
		<path class="st1" d="M412.3,108.9c0,3-0.1,4.7-0.5,5c-0.5,0.4-1,0.1-1,1.4c0,0.9,0.4,1.1,1.3,1.1c1.2,0,2.1,0,2.7,0h2.2
			c4.5,0,6.9,0.1,7.3,0.1c0.6,0,0.8-0.1,0.9-0.7c0-0.2,0.1-1.1,0.2-2.6c0.1-1.5,0.1-2.3,0.1-2.3c0-0.7-0.3-1-0.9-1
			c-0.9,0-1.2,0.9-1.8,2c-0.8,1.2-1.6,1.6-3.3,1.6c-0.8,0-1.2-0.1-1.4-0.4c-0.2-0.6-0.2-2-0.2-4.1v-1.3c0-3.4,0-5.2,0.4-5.6
			c0.4-0.4,1.2-0.4,1.2-1.4c0-1-0.3-1.3-1.2-1.3c-0.4,0-1.5,0-3.1,0c-1.6,0-2.7,0-3.1,0c-0.9,0-1.2,0.2-1.2,1.2
			c0,1.2,0.8,1.1,1.2,1.5c0.4,0.4,0.4,2.1,0.4,5.5V108.9z"/>
		<path class="st1" d="M428.2,116.5c0.6,0,1.6,0,2.8,0c1.7,0,3.2,0.1,4.3,0.1c2.7,0,4.7-0.4,6.3-1.7c1.7-1.5,2.7-3.9,2.7-6.9
			c0-5.6-3-8.4-9-8.4c-1,0-2.8,0.1-5.3,0.1c-0.8,0-1.5,0-1.9,0c-1,0-1.4,0.1-1.4,1.3c0,1.2,0.8,1,1,1.3c0.5,0.4,0.5,2.8,0.5,7.3
			c0,2.8-0.1,4.1-0.8,4.5c-0.3,0.2-0.8,0.2-0.8,1.4C426.6,116.2,426.9,116.5,428.2,116.5z M433.8,105c0-2.4,0-2.7,0.6-2.7
			c2,0,3.6,2.1,3.6,6.3c0,3.3-1,5-3,5c-0.8,0-0.9-0.2-1-1C433.8,111.1,433.8,108.6,433.8,105z"/>
		<path class="st1" d="M461.4,106.6c-0.8,0-0.9-0.2-0.9-0.9c0-0.3,0-0.6,0-1.1v-1.1c0-1,0.1-1.4,0.9-1.4c1.1,0,2,1,2,2.4
			C463.3,105.9,462.7,106.6,461.4,106.6z M466.2,116.4h3c1.7,0,2.5-0.6,2.5-1.9c0-1.1-1.1-0.8-1.7-1.6l-3.3-4
			c-0.2-0.2-0.3-0.4-0.3-0.5c0-0.2,0.2-0.3,0.4-0.4c1.3-0.9,2-1.9,2-3.5c0-3.1-2.2-4.9-6.4-4.9c-0.7,0-2.2,0.1-4.3,0.1
			c-0.9,0-1.9-0.1-2.9-0.1c-1.2,0-1.7,0.1-1.7,1.2c0,1.2,0.8,1.1,1.2,1.5c0.4,0.4,0.4,2.1,0.4,5.6v1.3c0,2.9-0.1,4.5-0.5,4.9
			c-0.5,0.4-1,0.1-1,1.4c0,1.1,0.6,1.1,1.9,1.1h0.4c0.9,0,1.8,0,2.9,0c0.8,0,1.5,0.1,2.3,0.1c1.3,0,1.9,0,1.9-1.4c0-1-0.6-1-1.3-1.1
			c-0.9-0.3-1-1.1-1-3.6c0-0.8,0-1.2,0.6-1.2c0.5,0,0.9,1.1,2,3.3l1.5,3.1C465.1,116.4,465.2,116.4,466.2,116.4z"/>
		<path class="st1" d="M473.3,104.6v4.8c0,5.9,2.1,7.4,7.9,7.4c2.8,0,4.7-0.6,5.8-1.6c1.5-1.5,1.5-3.2,1.5-5.6v-4.1
			c0-1.7,0-2.7,0.6-3.2c0.7-0.6,1.2-0.3,1.2-1.6c0-0.9-0.4-1.1-1.4-1.1c-0.8,0-1.4,0-1.8,0h-0.5c-1.1,0-1.9-0.1-2.3-0.1
			c-0.9,0-1.3,0.3-1.3,1.3c0,0.7,0.1,1,0.6,1.1c0.7,0.3,1.2,0.3,1.5,0.7c0.5,0.6,0.6,2,0.6,4.5c0,4.1-0.2,6.2-3.2,6.2
			c-3.1,0-3.4-2.3-3.4-7.1c0-2.7,0.1-3.9,0.8-4.3c0.4-0.3,1.1-0.2,1.1-1.3c0-0.8-0.5-1.1-1.6-1.1c-0.6,0-1.6,0.1-2.9,0.1
			c-1,0-1.9-0.1-2.8-0.1h-0.1c-1.1,0-1.7,0-1.7,1.3c0,0.8,0.4,1,0.9,1.2c0.6,0.3,0.7,0.9,0.7,2.1V104.6z"/>
		<path class="st1" d="M490.9,108.2c0,5,2.7,8.5,7.8,8.5c3.3,0,5.5-1.2,6.6-1.2c0.2,0,0.4,0,0.7,0c0.7,0,1-0.3,1-1.1
			c0-0.5-0.2-1.5-0.2-3c0-1.5,0.3-1.5,1.1-1.9c0.3-0.2,0.4-0.4,0.4-1.1c0-1-0.4-1.2-1.2-1.2c-0.4,0-1.4,0.1-2.9,0.1
			c-1.8,0-2.9-0.1-3.2-0.1c-1.1,0-1.5,0.3-1.5,1.4c0,0.5,0.1,0.8,0.5,1c0.2,0.1,0.6,0.1,1,0.3c0.3,0.2,0.4,0.7,0.4,1.5
			c0,1.6,0,2.2-1.1,2.2c-1.8,0-3.1-2.3-3.1-6.5c0-3.3,0.8-4.9,2.9-4.9c1.2,0,2.6,0.6,3.6,1.7c0.9,1,0.9,1.9,2,1.9
			c0.7,0,0.9-0.3,0.9-1.2c0-3.9-0.2-5.2-1.1-5.2c-0.4,0-1,0.5-1.5,0.5c-0.4,0-2-0.7-4.9-0.7C494.1,99.2,490.9,102.7,490.9,108.2z"/>
		<path class="st1" d="M508.9,108.2c0,5,2.7,8.5,7.8,8.5c3.3,0,5.5-1.2,6.6-1.2c0.2,0,0.4,0,0.7,0c0.7,0,1-0.3,1-1.1
			c0-0.5-0.2-1.5-0.2-3c0-1.5,0.3-1.5,1.1-1.9c0.3-0.2,0.4-0.4,0.4-1.1c0-1-0.4-1.2-1.2-1.2c-0.4,0-1.4,0.1-2.9,0.1
			c-1.8,0-2.9-0.1-3.2-0.1c-1.1,0-1.5,0.3-1.5,1.4c0,0.5,0.1,0.8,0.5,1c0.2,0.1,0.6,0.1,1,0.3c0.3,0.2,0.4,0.7,0.4,1.5
			c0,1.6,0,2.2-1.1,2.2c-1.8,0-3.1-2.3-3.1-6.5c0-3.3,0.8-4.9,2.9-4.9c1.2,0,2.6,0.6,3.6,1.7c0.9,1,0.9,1.9,2,1.9
			c0.7,0,0.9-0.3,0.9-1.2c0-3.9-0.2-5.2-1.1-5.2c-0.4,0-1,0.5-1.5,0.5c-0.4,0-2-0.7-4.9-0.7C512.1,99.2,508.9,102.7,508.9,108.2z"/>
		<path class="st1" d="M528.8,108.9c0,3-0.1,4.7-0.5,5c-0.5,0.4-1,0.1-1,1.4c0,0.9,0.4,1.1,1.3,1.1c2.8,0,4.8,0,6,0h3.3
			c1.9,0,2.9,0,3.1,0c0.8,0,1-0.2,1.1-0.9c0.2-1.3,0.3-2.9,0.3-4.1c0-0.9-0.2-1.3-0.9-1.3c-0.9,0-1,1.1-1.6,1.9
			c-0.6,0.8-2,1.5-3.6,1.5c-1.7,0-1.8-0.9-1.8-2.8v-0.7c0-1,0-1.4,0.6-1.4c0.6,0,0.9,0.5,1.1,1.6c0.2,0.7,0.4,1.1,1.1,1.1
			c0.9,0,1.1-0.4,1.1-1.3c0-0.3,0-0.9,0-1.8v-2.1c0-1.4-0.1-2-1-2c-1.1,0-1.1,0.7-1.3,1.2c-0.2,0.4-0.5,0.7-1,0.7
			c-0.7,0-0.7-0.3-0.7-1.4v-1.2c0-0.9,0-1.2,0.8-1.2c0.1,0,0.5,0,1.1,0c1.8,0,2.9,0.3,3.4,1.6c0.3,0.8,0.3,1.5,1.1,1.5
			c0.9,0,0.9-0.6,0.9-1.6v-3.2c0-1.1-0.2-1.2-1-1.2c-0.3,0-2.6,0.1-7,0.1c-3,0-4.7-0.1-5.1-0.1c-0.9,0-1.2,0.2-1.2,1.2
			c0,1.2,0.8,1.1,1.2,1.5c0.4,0.4,0.4,2.1,0.4,5.5V108.9z"/>
		<path class="st1" d="M545.3,116.5c0.6,0,1.6,0,2.8,0c1.7,0,3.2,0.1,4.3,0.1c2.7,0,4.7-0.4,6.3-1.7c1.7-1.5,2.7-3.9,2.7-6.9
			c0-5.6-3-8.4-9-8.4c-1,0-2.8,0.1-5.3,0.1c-0.8,0-1.5,0-1.9,0c-1,0-1.4,0.1-1.4,1.3c0,1.2,0.8,1,1,1.3c0.5,0.4,0.5,2.8,0.5,7.3
			c0,2.8-0.1,4.1-0.8,4.5c-0.3,0.2-0.8,0.2-0.8,1.4C543.7,116.2,544,116.5,545.3,116.5z M550.9,105c0-2.4,0-2.7,0.6-2.7
			c2,0,3.6,2.1,3.6,6.3c0,3.3-1,5-3,5c-0.8,0-0.9-0.2-1-1C551,111.1,550.9,108.6,550.9,105z"/>
	</g>
</g>
</svg>
