<svg height="512" viewBox="0 0 64 64" width="512" xmlns="http://www.w3.org/2000/svg" id="fi_4407830"><g id="Layer_1" data-name="Layer 1">
<path d="m17.98926 21.1543a2.00229 2.00229 0 0 0 -2-2h-4a2.00229 2.00229 0 0 0 -2 2v3a2.0023 2.0023 0 0 0 2 2h4a2.0023 2.0023 0 0 0 2-2zm-6 3v-3h4l.001 3z"></path>
<path d="m28.98926 23.29443a.99974.99974 0 0 0 1-1v-1.14013a2.00229 2.00229 0 0 0 -2-2h-4a2.00229 2.00229 0 0 0 -2 2v3c-.176 1.57791 2.57933 3.01126 2.9503 1.03221a.98654.98654 0 0 0 -.9503-1.03221v-3h4v1.14013a.99973.99973 0 0 0 1 1z"></path>
<path d="m17.98926 30.1543a2.00229 2.00229 0 0 0 -2-2h-4a2.00229 2.00229 0 0 0 -2 2v3a2.0023 2.0023 0 0 0 2 2h4a2.0023 2.0023 0 0 0 2-2zm-6 3v-3h4l.001 3z"></path>
<path d="m15.98926 37.1543h-4a2.00229 2.00229 0 0 0 -2 2v3a2.0023 2.0023 0 0 0 2 2h4a2.0023 2.0023 0 0 0 2-2v-3a2.00229 2.00229 0 0 0 -2-2zm-4 5v-3h4l.001 3z"></path>
<path d="m42.98926 20.1543h-3a2.00229 2.00229 0 0 0 -2 2v3a2.0023 2.0023 0 0 0 2 2h3a2.0023 2.0023 0 0 0 2-2v-3a2.00229 2.00229 0 0 0 -2-2zm-3 5v-3h3l.001 3z"></path>
<path d="m27.80957 52.1543a.99974.99974 0 0 0 -1-1h-20.82031v-35h28v9.43994a1 1 0 0 0 2 0v-9.43994a2.0023 2.0023 0 0 0 2-2v2a2.0023 2.0023 0 0 0 2 2h3a2.0023 2.0023 0 0 0 2-2v-3a2.00229 2.00229 0 0 0 -2-2h-3a2.00229 2.00229 0 0 0 -2 2v-1a2.00229 2.00229 0 0 0 -2-2h-16v-2h28v25.52a1 1 0 0 0 2 0v-25.52a2.0023 2.0023 0 0 0 2-2v-2a2.00229 2.00229 0 0 0 -2-2h-32a2.00229 2.00229 0 0 0 -2 2v2a2.0023 2.0023 0 0 0 2 2v2h-14a2.00229 2.00229 0 0 0 -2 2v2a2.0023 2.0023 0 0 0 2 2v35h-1a1.00019 1.00019 0 0 0 .00006 2h23.82025a.99974.99974 0 0 0 1-1zm12.17969-39h3l.001 3h-3.001zm-22-9h32l.001 2h-32.001zm-14 8h32l.001 2h-32.001z"></path>
<path d="m26.09961 33.97559a1.00006 1.00006 0 0 0 .46582.60742l3.47168 2.0039-1.00488 1.729-3.4668-2.00147a1.00035 1.00035 0 0 0 -.99994 1.73245l4.33 2.5a1.00087 1.00087 0 0 0 1.36426-.36378c2.93345-5.21725 3.29637-3.76725-1.82813-6.83251l1-1.73194 3.46387 2a1.00036 1.00036 0 0 0 .99994-1.73245l-4.33-2.5a1.00608 1.00608 0 0 0 -1.36621.36622l-2 3.46435a1 1 0 0 0 -.09961.75881z"></path>
<path d="m32.36035 42.54688a1.00208 1.00208 0 0 0 1.36621-.36622l1.49988-2.59777 1.73151.99987-1.49995 2.5979a1.00035 1.00035 0 0 0 1.73245.99995l1.99942-3.46308 2.00055-3.46509a.99989.99989 0 0 0 -.36621-1.36621l-3.46387-2a1.00612 1.00612 0 0 0 -1.36621.36622l-4 6.92821a.9999.9999 0 0 0 .36622 1.36622zm4.86621-6.42823 1.73145 1-.99988 1.73181-1.73151-.99987z"></path>
<path d="m47.082 51.04688c.30864.11913 3.68645 2.28188 3.96383 2.13383a1.00581 1.00581 0 0 0 .501-1.86626l-2.59857-1.5.9997-1.73163 1.7327 1.00018a1.00016 1.00016 0 0 0 1-1.73242l-1.73254-1.00007 1.00012-1.73236 2.59864 1.50049a1.00036 1.00036 0 0 0 .99994-1.73245l-3.46479-2a.99969.99969 0 0 0 -1.36621.36621l-4 6.92822a1.00668 1.00668 0 0 0 .36618 1.36626z"></path>
<path d="m39.28809 46.54688c.2168.07067 4.71838 2.87136 4.82906 2.63382a1.00581 1.00581 0 0 0 .50095-1.86625l-3.4638-2 3.5-6.062a1.00035 1.00035 0 0 0 -1.73245-.99994l-4 6.92816a.99989.99989 0 0 0 .36624 1.36621z"></path>
<path d="m61.01074 42.92236-32.043-18.5a2.00478 2.00478 0 0 0 -2.73242.73194l-7 12.12451a2.00354 2.00354 0 0 0 .73242 2.73242l12.12409 6.99963-7.69925 13.33484a1 1 0 0 0 .86621 1.5h8.083a.99985.99985 0 0 0 .86621-.5l5.67865-9.83465 12.12506 7.00018a2.00137 2.00137 0 0 0 2.73144-.73242l7-12.12549a2.0021 2.0021 0 0 0 -.73241-2.73096zm-28.24609 16.92334h-5.77344l6.833-11.83447 4.33008 2.5zm20.24609-3.06689c-8.59278-4.96108-23.397-13.50826-32.043-18.5l6.999-12.125 32.044 18.50049z"></path></g></svg>